<svg width="300" height="300" viewBox="0 0 300 300" fill="none" xmlns="http://www.w3.org/2000/svg">
<rect width="300" height="300" fill="white"/>
<path fill-rule="evenodd" clip-rule="evenodd" d="M27.5555 231.178C26.9438 228.365 26.273 225.563 25.6873 222.744C25.404 221.381 25.2421 219.992 25.0494 218.611C24.6902 216.035 24.3351 213.459 24.0069 210.879C23.8915 209.972 23.8088 209.055 23.7984 208.141C23.7142 200.738 23.5129 193.333 23.6422 185.934C23.7021 182.508 24.4126 179.092 24.8385 175.673C25.3989 171.175 26.576 166.82 27.9341 162.51C29.8887 156.309 31.8677 150.115 33.8404 143.919C34.9001 140.59 36.0382 137.284 37.0013 133.928C37.4458 132.379 37.6255 130.741 37.7973 129.131C37.9605 127.6 38.1351 126.033 37.9883 124.513C37.7136 121.669 37.241 118.842 36.7921 116.017C36.4089 113.605 35.961 111.204 35.5104 108.804C34.8106 105.076 34.6039 101.314 34.6791 97.5314C34.7384 94.5476 34.6464 91.5481 34.9268 88.5844C35.3322 84.3003 35.9488 80.0079 37.6401 76.0098C38.9342 72.9507 40.3684 69.9284 42.0174 67.0484C43.6465 64.2033 45.5807 61.5274 47.4638 58.8352C48.6124 57.193 49.8295 55.5806 51.1724 54.0966C53.2414 51.8104 55.3802 49.5785 57.606 47.4453C61.0821 44.1137 64.976 41.3053 69.1144 38.8562C73.0198 36.5449 77.1532 34.7129 81.4939 33.3716C84.465 32.4535 87.4617 31.6157 90.4186 30.6548C92.5341 29.9672 94.5618 28.9843 96.7023 28.4057C99.3586 27.6876 102.074 27.1361 104.795 26.7243C107.589 26.3016 110.419 26.1098 113.237 25.8632C115.303 25.6822 117.375 25.5322 119.448 25.4471C122.208 25.3337 124.972 25.2661 127.734 25.2351C130.863 25.1999 133.994 25.1742 137.121 25.2441C139.508 25.2974 141.893 25.4718 144.274 25.6541C147.476 25.8993 150.676 26.1768 153.871 26.4921C156.237 26.7256 158.605 26.9747 160.954 27.3368C164.152 27.8299 167.341 28.3928 170.518 29.0061C175 29.8712 179.501 30.6748 183.933 31.7541C188.615 32.8944 193.298 34.1241 197.695 36.1651C201.648 38.0004 205.608 39.837 209.453 41.8837C212.956 43.7483 216.303 45.9057 219.73 47.914C221.045 48.6848 222.414 49.3656 223.719 50.1528C224.594 50.6807 225.475 51.2415 226.223 51.9296C229.62 55.0552 232.986 58.215 236.331 61.396C237.944 62.9302 239.487 64.5384 241.062 66.1132C242.829 67.881 244.681 69.5736 246.344 71.4356C248.454 73.7991 250.39 76.318 252.439 78.7374C255.195 81.991 257.044 85.786 259.043 89.5039C260.4 92.028 261.244 94.7374 262.236 97.3945C262.913 99.2104 263.689 101.039 263.998 102.931C264.47 105.82 266.18 108.114 267.206 110.722C268.258 113.394 269.098 116.152 269.99 118.885C270.754 121.223 271.547 123.557 272.168 125.934C272.741 128.122 273.107 130.365 273.554 132.586C273.898 134.294 274.257 136.001 274.551 137.718C274.759 138.936 274.865 140.172 275.022 141.398C275.298 143.551 275.597 145.701 275.853 147.856C276.024 149.295 276.178 150.738 276.267 152.183C276.379 154.001 276.42 155.823 276.486 157.643C276.559 159.673 276.762 161.709 276.669 163.731C276.451 168.496 268.607 187.655 265.439 192.355C263.603 195.08 261.833 197.852 259.949 200.544C257.48 204.071 254.955 207.559 252.405 211.027C249.351 215.18 246.282 219.322 243.144 223.411C241.661 225.343 240.036 227.17 238.413 228.989C237.057 230.51 235.696 232.045 234.187 233.406C231.239 236.065 228.201 238.624 225.174 241.193C221.185 244.58 216.808 247.445 212.286 250.022C208.595 252.126 204.688 253.896 200.754 255.516C194.823 257.96 188.795 260.172 182.788 262.428C178.197 264.153 173.605 265.884 168.957 267.442C165.026 268.76 161.043 269.95 157.028 270.979C153.628 271.85 150.158 272.462 146.701 273.091C144.281 273.531 141.836 273.857 139.391 274.141C137.008 274.417 134.613 274.587 132.221 274.778C130.961 274.878 129.698 274.959 128.435 274.986C124.242 275.073 120.05 275.165 115.857 275.188C113.793 275.199 111.723 275.129 109.664 274.976C106.775 274.761 103.881 274.527 101.012 274.131C97.7395 273.678 94.4956 273.023 91.2345 272.485C88.5509 272.042 85.8481 271.708 83.1754 271.21C78.5871 270.355 73.9938 269.505 69.4438 268.472C65.8021 267.645 62.1762 266.689 58.6244 265.539C52.9738 263.71 47.6793 261.092 42.8985 257.536C41.2958 256.344 39.7107 255.068 38.3623 253.606C35.1497 250.12 32.5664 246.188 30.6992 241.704C29.2701 238.241 28.3289 234.736 27.5555 231.178Z" fill="#64FCD9"/>
<path d="M162.805 238.773C162.386 240.972 162.219 243.16 161.484 245.137C160.531 247.702 158.325 249.252 155.777 250.04C152.978 250.907 150.096 251.514 147.232 252.15C146.28 252.361 145.271 252.321 144.288 252.38C140.747 252.594 137.204 252.792 133.664 253.013C131.732 253.134 129.803 253.314 127.871 253.421C126.018 253.524 124.16 253.643 122.306 253.614C121.895 253.608 119.324 253.979 115.726 254.232C115.028 254.282 116.115 258.056 114.859 258.451C112.061 259.333 105.206 259.085 104.011 257.214C102.815 255.342 103.239 254.554 101.913 254.013C95.4297 251.367 88.7516 250.749 86.7946 245.137C85.492 241.401 87.9713 232.551 87.2503 225.757C85.4017 208.336 81.7249 188.897 81.6049 188.797C81.6171 188.784 77.6897 189.119 77.3972 187.68C73.7682 169.818 72.1133 146.278 81.6049 140.342C87.3203 136.767 98.2074 133.096 110.277 130.097C112.032 129.661 113.067 127.084 114.859 126.679C115.26 126.588 116.486 124.26 117.538 121.92C118.597 119.565 119.488 117.198 121.662 117.095C126.132 116.882 133.842 111.157 139.073 112.944C143.863 114.579 146.291 123.788 148.141 122.672C150.005 121.549 151.655 123.5 154.208 123.5C172.485 123.5 186.25 158.22 188.164 166.764C184.965 171.38 175.491 171.38 166.539 174.115C165.058 172.288 162.082 166.808 161.12 163.725C160.131 160.553 159.79 167.747 159.72 170.296C159.631 173.593 159.926 176.902 160.089 180.204C160.197 182.381 160.374 184.554 160.499 186.729C160.718 190.55 160.949 194.369 161.12 198.192C161.24 200.882 161.188 203.581 161.362 206.267C161.539 209.018 161.906 211.758 162.173 214.504C162.331 216.119 162.474 217.736 162.59 219.354C162.687 220.719 162.824 222.09 162.786 223.453C162.711 226.096 162.435 228.734 162.423 231.375C162.417 232.755 162.879 234.13 162.975 235.518C163.046 236.559 162.87 237.618 162.805 238.773Z" fill="white"/>
<path d="M192.03 74.0254C190.851 72.9091 190.13 71.5145 189.204 70.2733C189.176 70.2367 189.15 70.1983 189.131 70.1574C188.406 68.584 187.698 67.011 187.353 65.2911C187.152 64.2869 187.16 63.308 187.313 62.3119C187.389 61.8165 187.421 61.3132 187.519 60.823C187.821 59.318 188.555 58.0075 189.416 56.7611C189.675 56.3862 189.973 56.0372 190.225 55.6577C191.17 54.2364 192.502 53.3213 194.054 52.6836C195.065 52.2687 196.101 51.9189 197.09 51.4497C197.211 51.392 197.345 51.3403 197.478 51.3278C199.113 51.1731 200.747 51.0124 202.384 50.8819C203.981 50.7544 205.58 50.7897 207.177 50.8927C208.043 50.9482 208.912 50.9724 209.774 51.0598C211.645 51.2498 213.453 51.672 215.189 52.4312C216.402 52.9615 217.625 53.4574 218.787 54.0989C220.123 54.8361 221.257 55.8149 222.33 56.8782C222.821 57.3651 223.197 57.9355 223.533 58.5352C223.734 58.8932 223.911 59.2681 224.146 59.6024C225.512 61.5468 225.807 63.7117 225.476 66.0007C225.398 66.5405 225.224 67.067 225.27 67.6228C225 68.7318 224.738 69.845 224.077 70.8054C223.558 71.5585 222.997 72.2762 222.297 72.8764C222.055 73.0845 221.811 73.2939 221.592 73.5257C221.117 74.0284 220.538 74.3886 219.989 74.7966C218.807 75.6755 217.49 76.2959 216.188 76.9486C216.026 77.0296 215.854 77.0943 215.681 77.1468C214.983 77.3592 214.283 77.5643 213.583 77.7707C212.796 78.0029 212.011 78.2493 211.218 78.4604C209.975 78.7913 208.686 78.796 207.421 78.9641C207.242 78.9878 207.053 78.9748 206.874 78.9443C205.524 78.7151 204.155 78.6453 202.797 78.4759C202.572 78.4479 202.35 78.3893 202.127 78.3428C200.608 78.0266 199.079 77.7457 197.604 77.2429C197.235 77.1171 196.902 77.1455 196.558 77.3476C196.165 77.5781 195.747 77.7668 195.337 77.9663C194.469 78.3876 193.714 78.9804 192.932 79.5332C192.71 79.69 192.477 79.8326 192.241 79.9671C192.058 80.0709 191.745 79.9149 191.697 79.6982C191.638 79.4324 191.58 79.1692 191.658 78.8895C192.097 77.3304 192.082 75.7354 192.03 74.0254Z" fill="white"/>
<path fill-rule="evenodd" clip-rule="evenodd" d="M115.453 125.383C115.453 125.383 117.443 122.659 118.13 121.239C118.817 119.819 119.462 117.095 119.462 117.095C119.462 117.095 133.66 137.196 131.413 137.458C126.923 137.981 115.453 125.383 115.453 125.383Z" fill="#E7EAEE"/>
<path d="M176.675 189.731C174.427 186.157 169.651 177.827 167.452 174.308C167.401 174.227 177.643 164.809 186.76 167.194C187.665 167.43 189.405 170.959 190.259 171.38C191.848 172.163 191.564 168.336 194.604 162.943C199.392 154.452 208.211 141.772 211.674 134.202C213.081 131.126 212.086 128.728 211.938 128.056C211.388 125.571 210.099 123.544 208.237 121.841C207.03 120.736 206.982 118.272 208.356 117.592C209.371 117.091 210.516 116.932 211.674 117.511C212.996 118.171 214.312 118.796 215.222 120.027C215.344 120.193 215.56 120.291 215.733 120.421C215.816 120.211 215.908 120.004 215.981 119.791C216.714 117.652 217.388 115.491 218.191 113.379C218.901 111.513 219.687 109.668 220.58 107.884C220.874 107.296 221.616 106.538 222.137 106.55C222.905 106.568 223.405 107.396 223.52 108.265C223.582 108.726 223.647 109.187 223.734 109.643C223.772 109.843 223.869 110.032 223.939 110.227C224.078 110.06 224.207 109.884 224.358 109.729C224.814 109.263 225.218 108.712 225.754 108.365C226.489 107.888 227.327 108.418 227.268 109.334C227.186 110.598 227.087 111.884 226.782 113.107C226.234 115.307 225.524 117.466 224.89 119.644C224.852 119.774 224.889 119.925 224.891 120.067C225.033 119.99 225.246 119.95 225.307 119.831C225.707 119.057 226.134 118.288 226.436 117.475C226.925 116.16 227.665 115.034 228.735 114.145C228.984 113.938 229.388 113.918 229.721 113.812C229.817 114.121 230.057 114.469 229.986 114.733C229.471 116.641 229.025 118.584 228.308 120.419C226.501 125.041 224.571 129.616 222.673 134.202C221.576 136.853 220.303 139.44 219.372 142.147C218.423 144.906 217.87 147.799 217.009 150.592C216.095 153.554 215.043 156.473 214.015 159.398C212.454 163.844 211.048 168.357 209.223 172.693C207.796 176.081 205.938 179.305 204.069 182.484C202.669 184.865 201.066 187.154 199.323 189.297C198.299 190.556 196.846 191.474 195.549 192.499C193.473 194.141 191.116 195.188 188.536 195.78C185.566 196.461 182.929 195.931 180.713 193.764C179.371 192.451 178.055 191.111 176.675 189.731Z" fill="white"/>
<path fill-rule="evenodd" clip-rule="evenodd" d="M106.805 101.622C106.519 102.201 106.537 102.707 106.91 103.199C107.077 103.419 107.258 103.629 107.439 103.839L107.439 103.839C107.633 104.064 107.827 104.29 108.004 104.528C108.272 104.887 108.548 105.242 108.824 105.598C109.55 106.53 110.277 107.463 110.846 108.483C111.652 109.924 112.584 110.987 114.276 111.292C114.963 111.416 115.222 111.965 115.304 112.688C115.419 113.693 115.606 114.713 115.94 115.664C116.179 116.345 116.81 116.796 117.615 116.708C117.992 116.668 118.368 116.604 118.744 116.54C119.322 116.442 119.899 116.344 120.479 116.331C121.035 116.317 121.755 116.462 122.129 116.821C123.127 117.778 124.047 118.82 124.965 119.86L124.965 119.86C125.155 120.075 125.345 120.29 125.535 120.504C125.605 120.583 125.674 120.663 125.743 120.742C126.414 121.517 127.037 122.237 128.369 121.775C129.952 121.226 131.616 120.98 133.332 121.092C134.907 121.194 135.521 120.661 136.006 119.119C136.056 118.961 136.098 118.8 136.14 118.638C136.221 118.326 136.302 118.015 136.438 117.729C136.489 117.621 136.54 117.512 136.591 117.402L136.591 117.4C136.871 116.797 137.157 116.18 137.589 115.705C138.369 114.849 139.38 114.98 140.416 115.348C141.582 115.761 142.187 115.508 142.69 114.447C142.903 113.999 142.973 114.005 143.363 114.292C143.678 114.524 144.174 114.631 144.576 114.602C145.57 114.528 146.565 114.389 147.539 114.181C147.891 114.106 148.357 113.827 148.478 113.525C148.624 113.155 148.772 112.786 148.92 112.417L148.921 112.414C149.757 110.328 150.593 108.239 151.263 106.098C152.351 102.616 153.162 99.0516 153.16 95.3739C153.159 92.9102 153.087 90.4464 153.014 87.9829L153.014 87.9827L153.014 87.9816C152.996 87.3576 152.978 86.7336 152.961 86.1097C152.952 85.8132 152.945 85.5165 152.938 85.2197C152.906 83.8684 152.874 82.5155 152.738 81.1741C152.493 78.7536 152.178 76.34 151.863 73.9269C151.81 73.5212 151.757 73.1156 151.704 72.71C151.55 71.5212 151.37 70.3356 151.19 69.15L151.19 69.1489C151.131 68.7572 151.071 68.3655 151.013 67.9737L150.886 67.1243C150.605 65.2395 150.324 63.3547 150.027 61.4724C150.016 61.3989 150.005 61.323 149.994 61.2459L149.994 61.2455C149.94 60.8538 149.882 60.4342 149.661 60.1694C149.463 59.9328 149.266 59.6955 149.069 59.4581L149.069 59.4581C147.808 57.9389 146.543 56.4156 145.136 55.0409C144.033 53.9624 142.702 53.0964 141.396 52.2459L141.226 52.1353C137.656 49.8095 133.658 48.7625 129.455 48.4862C128.304 48.4105 127.146 48.428 125.988 48.4454C125.295 48.4559 124.602 48.4663 123.91 48.4568C123.278 48.4481 122.935 48.6494 122.525 49.2007C121.981 49.9322 121.168 50.5208 120.365 50.9913C118.359 52.1662 116.595 53.5463 115.239 55.4864C113.459 58.0348 111.828 60.6567 110.762 63.5798C109.94 65.8343 109.371 68.1499 109.174 70.5751C109.111 71.3582 108.953 72.1309 108.795 72.9041C108.49 74.4002 108.184 75.898 108.561 77.4755C108.724 78.1553 108.819 78.8525 108.913 79.5492C109.024 80.366 109.135 81.1821 109.355 81.9685C109.396 82.113 109.436 82.2572 109.477 82.4013L109.477 82.4022C110.18 84.9002 110.869 87.3514 110.732 90.0396C110.584 92.9291 109.559 95.4536 108.371 98.1887C108.22 98.5243 108.07 98.861 107.921 99.1978L107.921 99.198L107.921 99.1981C107.56 100.012 107.199 100.825 106.805 101.622ZM153.802 82.5967C153.803 82.6215 153.8 82.6483 153.798 82.6749C153.793 82.7227 153.788 82.7695 153.807 82.8023C153.868 82.9037 153.942 82.9977 154.015 83.0918C154.044 83.1289 154.072 83.166 154.1 83.2035C154.132 83.1757 154.164 83.1491 154.196 83.1224C154.267 83.0649 154.337 83.0073 154.393 82.9386C154.554 82.7434 154.716 82.5491 154.878 82.3547C155.339 81.8018 155.801 81.2488 156.233 80.6743C157.187 79.4071 158.12 78.1235 159.034 76.827C159.573 76.0626 159.037 75.7458 158.398 75.7005C157.068 75.6062 155.941 76.1685 154.798 76.8255C153.981 77.295 153.379 77.6883 153.593 78.9276L153.624 79.4664C153.683 80.5098 153.743 81.5532 153.802 82.5967ZM108.241 83.1848C108.212 83.2318 108.183 83.2787 108.162 83.3242C107.593 83.0529 107.065 82.7289 106.543 82.4082C106.086 82.1274 105.633 81.8491 105.159 81.6109C104.089 81.0723 103.713 80.0942 103.37 79.1221C102.976 78.0034 103.854 76.9347 105.043 76.9428C105.096 76.9432 105.149 76.9434 105.203 76.9436C105.627 76.9451 106.057 76.9466 106.465 77.036C107.266 77.2116 107.346 77.8325 107.422 78.4307C107.446 78.6163 107.469 78.7998 107.514 78.9671C107.8 80.0377 108.009 81.1293 108.218 82.22C108.261 82.4456 108.304 82.6712 108.348 82.8966C108.365 82.9824 108.303 83.0836 108.241 83.1848Z" fill="white"/>
<circle cx="146.4" cy="95.6" r="2.8" fill="#FFB61D"/>
<ellipse cx="117.2" cy="93.2" rx="2.8" ry="2.8" fill="#FFB61D"/>
<path fill-rule="evenodd" clip-rule="evenodd" d="M130.437 59.4617C132.032 59.8045 133.763 60.2204 135.375 59.3448C135.921 59.0483 136.435 58.6832 136.932 58.3086C137.236 58.0802 137.509 57.7966 137.747 57.4992C139.641 55.1382 141.039 55.4907 143.647 57.0322C146.983 59.0045 150.847 64.7492 140.502 64.7492C135.292 64.7492 114.481 61.912 117.387 59.0918C118.575 57.9391 120.13 57.1676 121.509 56.2086C122.028 55.8475 122.556 55.4859 123.015 55.0544C123.678 54.4293 124.081 54.7594 124.495 55.334C125.04 56.0894 125.609 56.8275 126.219 57.6253C127.655 58.2939 128.988 59.1504 130.437 59.4617Z" fill="#E7EAEE"/>
<path fill-rule="evenodd" clip-rule="evenodd" d="M186.191 167.467L186.191 167.467C185.65 167.793 185.11 168.118 184.529 168.338C183.125 168.871 181.701 169.352 180.262 169.839L180.262 169.839L180.262 169.839L180.261 169.839L180.261 169.839L180.261 169.84L180.261 169.84L180.26 169.84L180.26 169.84L180.26 169.84L180.259 169.84L180.259 169.84L180.259 169.84L180.259 169.84L180.258 169.84L180.258 169.84C179.348 170.148 178.433 170.458 177.512 170.784C177.235 170.892 176.99 170.963 176.754 171.032L176.66 171.06L176.588 171.081C175.766 171.326 174.943 171.573 174.121 171.82C172.057 172.441 169.993 173.063 167.918 173.645C167.078 173.88 166.383 173.616 165.927 172.708C164.793 170.451 163.579 168.234 162.358 166.023C162.273 165.869 162.064 165.785 161.855 165.7C161.758 165.661 161.66 165.621 161.576 165.575C161.544 165.682 161.493 165.799 161.443 165.916C161.334 166.167 161.225 166.418 161.305 166.571C162.666 169.187 164.064 171.786 165.527 174.346C165.708 174.663 166.362 174.953 166.724 174.882C168.643 174.504 170.549 174.041 172.441 173.539C173.173 173.345 173.897 173.119 174.62 172.892L174.62 172.892L174.62 172.892C175.663 172.565 176.705 172.239 177.769 172.011C181.421 171.229 184.915 170.1 188.05 168.012C189.176 167.262 189.485 166.115 188.937 164.926C188.748 164.515 188.554 164.104 188.361 163.693L188.361 163.692L188.36 163.691L188.36 163.69L188.359 163.69L188.359 163.689L188.358 163.688L188.358 163.687L188.358 163.686L188.357 163.685L188.357 163.684L188.357 163.684C187.685 162.257 187.012 160.828 186.486 159.349C184.874 154.813 183.058 150.366 180.921 146.057C179.568 143.331 178.132 140.64 176.605 138.007C174.566 134.489 172.43 130.975 169.15 128.472C166.873 126.733 164.434 125.096 161.84 123.908C158.05 122.171 153.887 121.791 149.745 121.502C148.899 121.443 148.009 121.126 147.261 120.709C145.762 119.872 145.153 118.391 144.54 116.899C144.473 116.736 144.406 116.573 144.337 116.41C144.035 115.69 144.522 115.556 144.828 115.492C145.617 115.329 146.451 115.199 147.245 115.28C148.481 115.404 149.161 114.829 149.614 113.804C150.727 111.29 151.701 108.733 152.437 106.073C153.456 102.389 154.325 98.706 154.233 94.8457C154.192 93.1724 154.202 91.4981 154.211 89.8236C154.216 88.9506 154.221 88.0775 154.219 87.2046C154.218 86.9664 154.189 86.7173 154.16 86.4689C154.102 85.9695 154.045 85.4732 154.219 85.0753C154.646 84.0966 155.348 83.2184 156.029 82.3744C156.568 81.7068 157.131 81.0585 157.694 80.4102L157.694 80.4101C158.376 79.6245 159.058 78.839 159.697 78.0195C160.212 77.3596 160.595 76.519 160.077 75.6426C159.571 74.7866 158.759 74.4392 157.817 74.6519C157.655 74.6884 157.492 74.7228 157.329 74.7573C156.144 75.0081 154.946 75.2616 154.109 76.3123C153.707 76.8172 153.474 76.8189 153.37 76.0867C153.293 75.5434 153.183 75.0046 153.073 74.466L153.073 74.4659L153.073 74.4657L153.073 74.4656L153.073 74.4655L153.073 74.4654L153.073 74.4653L153.073 74.4652L153.073 74.4651L153.073 74.465L153.073 74.4649L153.073 74.4648L153.073 74.4647L153.073 74.4646L153.073 74.4645L153.073 74.4642L153.073 74.464L153.073 74.4637L153.072 74.4634L153.072 74.4631L153.072 74.4628L153.072 74.4625L153.072 74.4623L153.072 74.462L153.072 74.4617L153.072 74.4614L153.072 74.4611L153.072 74.4609L153.072 74.4606C152.958 73.9035 152.844 73.3465 152.767 72.7844C152.672 72.0905 152.607 71.3924 152.543 70.6942L152.543 70.6939L152.543 70.6935L152.543 70.6931V70.693C152.481 70.0171 152.418 69.3412 152.328 68.6692C152.201 67.7257 152.057 66.7842 151.914 65.8429L151.914 65.8426L151.914 65.8423C151.696 64.4174 151.479 62.9927 151.319 61.5614C151.224 60.7114 150.988 60.0306 150.417 59.4111C150.122 59.0897 149.821 58.7715 149.521 58.4531L149.52 58.4529L149.52 58.4527L149.52 58.4525C148.599 57.4764 147.676 56.499 146.881 55.4281C144.688 52.4729 141.573 50.9229 138.341 49.5173C136.258 48.6115 134.105 47.9636 131.814 47.8329C130.807 47.7754 129.8 47.7036 128.793 47.6318C127.764 47.5584 126.736 47.4851 125.707 47.427C124.86 47.3792 123.999 47.3451 123.163 47.4504C122.747 47.5028 122.331 47.8352 121.988 48.1266C121.65 48.4143 121.327 48.7221 121.005 49.0297L121.005 49.0297L121.005 49.0297L121.005 49.0297C120.59 49.426 120.175 49.8221 119.726 50.1748C119.253 50.5467 118.751 50.8881 118.25 51.229C117.427 51.7888 116.607 52.3474 115.914 53.0377C115.119 53.8312 114.483 54.7873 113.848 55.7418C113.615 56.0931 113.382 56.4441 113.14 56.7868C111.35 59.3299 109.975 62.0783 109.218 65.1039C108.749 66.9766 108.353 68.8681 107.959 70.7584L107.896 71.0576C107.607 72.4414 107.318 73.8286 107.136 75.228L107.128 75.29C106.984 76.3985 106.973 76.4827 105.909 76.0895C104.811 75.6834 103.865 75.9577 103.092 76.7027C102.332 77.4347 102.248 78.4222 102.512 79.4176C103.286 82.333 105.514 83.5536 108.178 84.2808C108.41 84.3442 108.667 84.5711 108.778 84.7901C109.926 87.0617 109.976 89.4778 109.249 91.8207C108.58 93.9781 107.787 96.0971 106.994 98.2162L106.994 98.2164C106.644 99.1514 106.294 100.086 105.955 101.025C105.606 101.991 105.414 102.877 106.215 103.813C107.936 105.826 109.58 107.909 110.821 110.271C111.314 111.207 112.069 111.881 113.083 112.084C114.048 112.278 114.179 112.756 114.293 113.662C114.443 114.856 114.84 116.11 115.485 117.111C115.69 117.428 116.242 117.514 116.808 117.602L116.808 117.602H116.808C117.107 117.649 117.41 117.696 117.667 117.778C117.876 117.845 118.21 118.125 118.184 118.239C118.138 118.441 118.093 118.644 118.049 118.848C117.834 119.823 117.619 120.803 117.257 121.723C116.465 123.738 114.779 124.999 113.143 126.223C112.92 126.39 112.697 126.557 112.478 126.724C109.621 128.908 106.224 130.107 102.81 131.142C101.206 131.628 99.5784 132.038 97.9508 132.447L97.9503 132.447L97.95 132.447L97.9497 132.447L97.9494 132.447L97.9491 132.447L97.9488 132.447L97.9486 132.447L97.9483 132.447L97.948 132.447L97.9477 132.448L97.9474 132.448L97.9471 132.448L97.9468 132.448L97.9466 132.448L97.9463 132.448C96.8917 132.713 95.837 132.978 94.7884 133.265C94.1342 133.443 93.4877 133.655 92.8415 133.866L92.8413 133.866C91.8832 134.179 90.9257 134.492 89.945 134.698C86.1771 135.488 82.8535 137.114 79.9342 139.604C77.9721 141.278 76.9189 143.529 75.8598 145.792L75.7052 146.122C74.2738 149.173 73.0187 152.425 72.8419 155.727C72.7923 156.653 72.863 157.585 72.9338 158.517C72.9696 158.988 73.0053 159.46 73.0256 159.931C73.0711 160.989 73.1101 162.048 73.149 163.107L73.149 163.108C73.2338 165.411 73.3186 167.715 73.4704 170.014C73.5551 171.296 73.7832 172.57 74.0108 173.842L74.0108 173.842C74.0762 174.207 74.1415 174.572 74.2035 174.937C74.372 175.93 74.56 176.92 74.748 177.91L74.7481 177.911C74.8736 178.572 74.9991 179.232 75.1188 179.894C75.1969 180.326 75.2807 180.757 75.3644 181.188L75.3645 181.188C75.5899 182.348 75.8153 183.508 75.9298 184.679C76.035 185.755 76.0044 186.845 75.9739 187.933C75.9648 188.255 75.9558 188.577 75.9503 188.899C75.9406 189.465 76.0396 189.924 76.7202 189.77C77.3928 189.618 78.0538 189.414 78.7144 189.21C78.922 189.145 79.1297 189.081 79.3376 189.019C80.0388 188.808 80.4684 189.055 80.5589 189.776C80.6483 190.489 80.7271 191.204 80.8059 191.918C80.9255 193.003 81.0451 194.087 81.2019 195.166C81.5829 197.789 82.0021 200.408 82.4543 203.02C83.2842 207.815 84.4806 212.525 86.0524 217.126C87.4498 221.217 88.9613 225.27 90.4873 229.315C91.3662 231.645 92.3064 233.952 93.2465 236.259C93.4867 236.848 93.7269 237.437 93.9661 238.027C94.9353 240.417 95.9253 242.798 96.9168 245.179C97.1468 245.731 97.3742 246.285 97.6015 246.839C98.2682 248.463 98.935 250.087 99.6711 251.679C100.31 253.061 101.036 254.402 101.762 255.744L101.764 255.746C101.977 256.141 102.191 256.536 102.402 256.932C102.468 257.055 102.601 257.143 102.733 257.231C102.794 257.272 102.856 257.313 102.91 257.357C102.937 257.284 102.967 257.212 102.998 257.14C103.07 256.971 103.142 256.802 103.158 256.628C103.171 256.491 103.094 256.342 103.02 256.2L102.995 256.152C102.984 256.131 102.974 256.109 102.964 256.089C102.717 255.571 102.461 255.057 102.206 254.543C101.671 253.466 101.135 252.388 100.678 251.278C99.0944 247.433 97.5753 243.561 96.0617 239.687C95.3816 237.947 94.7167 236.2 94.0518 234.454C93.3972 232.734 92.7426 231.015 92.0735 229.301C91.6575 228.236 91.2177 227.178 90.7779 226.121L90.7778 226.121C89.9907 224.229 89.2037 222.337 88.5537 220.399C87.1737 216.285 85.9389 212.115 84.8208 207.921C84.1908 205.558 83.7578 203.14 83.3256 200.726L83.3256 200.726L83.3255 200.725L83.3255 200.725L83.3254 200.725L83.3254 200.725L83.3254 200.724L83.3253 200.724L83.3253 200.724L83.3252 200.724L83.3252 200.723L83.3252 200.723L83.3251 200.723L83.3251 200.723L83.325 200.723C83.2475 200.29 83.17 199.857 83.0914 199.424C82.8734 198.226 82.7346 197.012 82.5958 195.799C82.5485 195.385 82.5011 194.971 82.4506 194.558C82.2311 192.762 82.0243 190.964 81.8232 189.166C81.7562 188.566 82.0216 188.282 82.6333 188.089C84.9737 187.348 87.3029 186.572 89.6321 185.796L89.6325 185.795L89.633 185.795L89.6335 185.795L89.6341 185.795L89.6345 185.795L89.6349 185.795L89.6354 185.794L89.636 185.794L89.6364 185.794L89.6368 185.794L89.6373 185.794L89.6378 185.794L89.6383 185.794L89.6389 185.793C90.4659 185.518 91.2929 185.242 92.1203 184.968C92.7358 184.764 93.3913 184.569 94.065 184.368L94.0653 184.368C96.5605 183.624 99.3068 182.805 101.206 181.208C101.316 181.115 101.604 181.062 101.673 181.13C101.797 181.251 101.884 181.483 101.871 181.66C101.806 182.547 101.726 183.434 101.647 184.32C101.49 186.068 101.333 187.816 101.283 189.567C101.221 191.788 101.328 194.015 101.434 196.239C101.448 196.533 101.462 196.826 101.476 197.12C101.542 198.531 101.647 199.953 101.9 201.34C102.544 204.869 103.88 208.171 105.449 211.379C105.678 211.845 105.949 212.294 106.22 212.742L106.22 212.742C106.625 213.413 107.029 214.081 107.286 214.804C107.679 215.91 108.095 217.008 108.51 218.106C109.652 221.121 110.793 224.138 111.471 227.31C111.684 228.308 111.933 229.299 112.182 230.289C112.458 231.388 112.734 232.487 112.961 233.596C113.312 235.307 113.585 237.033 113.858 238.76L113.858 238.763C113.921 239.16 113.984 239.556 114.047 239.953C114.125 240.438 114.212 240.924 114.299 241.41C114.536 242.728 114.772 244.048 114.829 245.375C114.942 248.015 114.978 250.658 115.014 253.301V253.301V253.301V253.301V253.302V253.302V253.302V253.302V253.302V253.303V253.303V253.303V253.303V253.304V253.304V253.304C115.034 254.714 115.053 256.124 115.084 257.534C115.088 257.744 115.178 257.952 115.267 258.161C115.309 258.257 115.35 258.354 115.383 258.451C115.439 258.353 115.507 258.256 115.576 258.159C115.725 257.948 115.874 257.738 115.886 257.52C115.955 256.33 115.996 255.138 116.037 253.947V253.947C116.063 253.178 116.089 252.41 116.123 251.641C116.139 251.276 116.177 250.91 116.215 250.544C116.272 249.996 116.329 249.448 116.312 248.902C116.294 248.33 116.278 247.758 116.261 247.185C116.187 244.567 116.112 241.947 115.866 239.344C115.702 237.599 115.288 235.872 114.876 234.153C114.797 233.823 114.718 233.493 114.641 233.164C114.457 232.375 114.276 231.584 114.096 230.793C113.457 227.988 112.817 225.181 111.977 222.437C110.597 217.93 108.724 213.604 106.572 209.394C105.594 207.48 104.774 205.437 104.225 203.362C103.147 199.288 103.053 195.076 102.96 190.888L102.952 190.494C102.908 188.567 102.988 186.637 103.067 184.707L103.067 184.706C103.094 184.048 103.121 183.389 103.143 182.731C103.172 181.867 103.239 181.003 103.305 180.14C103.32 179.951 103.334 179.762 103.348 179.573C103.413 178.713 103.491 177.853 103.57 176.993C103.741 175.114 103.913 173.235 103.937 171.354C103.955 169.841 103.857 168.327 103.759 166.813L103.759 166.812C103.678 165.558 103.596 164.303 103.581 163.048C103.56 161.277 103.049 159.641 102.538 158.003L102.538 158.003C102.375 157.483 102.213 156.964 102.067 156.44C102.01 156.239 101.802 156.08 101.594 155.921C101.497 155.848 101.401 155.774 101.319 155.696C101.288 155.81 101.242 155.926 101.196 156.043C101.096 156.297 100.996 156.551 101.042 156.776C101.133 157.226 101.27 157.67 101.406 158.113C101.597 158.733 101.787 159.352 101.853 159.985C102.147 162.82 102.426 165.668 102.472 168.515C102.491 169.706 102.398 170.901 102.305 172.095L102.305 172.095C102.201 173.427 102.097 174.758 102.15 176.085C102.224 177.976 101.259 178.982 99.9663 179.942C98.2662 181.205 95.8379 181.935 93.6579 182.59C93.0803 182.764 92.5202 182.932 91.9956 183.104C88.7373 184.17 85.4984 185.295 82.2596 186.42L82.2593 186.42L82.259 186.42L82.2587 186.421L82.2584 186.421L82.2581 186.421L82.2578 186.421L82.2576 186.421L82.2573 186.421L82.257 186.421L82.2567 186.421L82.2564 186.421L82.2561 186.421L82.2558 186.421L82.2556 186.422C80.9193 186.886 79.5831 187.35 78.2456 187.81L78.223 187.818C77.7755 187.972 77.4063 188.099 77.4069 187.336C77.4077 186.404 77.3111 185.47 77.215 184.542L77.2098 184.492C77.1552 183.963 77.1016 183.434 77.048 182.905L77.0479 182.905C76.8408 180.861 76.6336 178.816 76.364 176.78C76.1994 175.536 75.9994 174.297 75.7995 173.058C75.5605 171.577 75.3216 170.096 75.143 168.608C74.8918 166.516 74.7428 164.4 74.7258 162.294C74.7085 160.16 74.7742 158.026 74.8399 155.892C74.8657 155.054 74.8915 154.216 74.9123 153.379C74.968 151.131 76.0715 149.069 77.1477 147.058C77.5504 146.306 77.9492 145.561 78.2879 144.816C80.0056 141.037 83.2401 138.953 86.8809 137.481C88.6307 136.774 90.4561 136.251 92.2804 135.729C92.9506 135.537 93.6207 135.345 94.2869 135.144C95.7792 134.694 97.2754 134.255 98.7715 133.817C101.723 132.952 104.674 132.087 107.597 131.132C110.203 130.28 112.685 129.06 114.737 127.171C115.3 126.654 115.576 126.746 116.072 127.22C117.69 128.766 119.347 130.273 121.004 131.78L121.004 131.78L121.004 131.78L121.004 131.78L121.004 131.78L121.004 131.78L121.004 131.78L121.004 131.78L121.005 131.78L121.005 131.78L121.005 131.78L121.005 131.781L121.005 131.781L121.005 131.781L121.006 131.782L121.292 132.041C124.117 134.612 127.262 136.713 130.759 138.246C131.278 138.473 132.126 138.441 132.608 138.161C133.693 137.529 134.709 136.774 135.722 136.02C135.931 135.865 136.14 135.71 136.349 135.555C136.77 135.246 137.191 134.937 137.612 134.628C139.364 133.343 141.115 132.059 142.819 130.714C144.628 129.284 145.923 127.401 147.213 125.525C147.419 125.225 147.625 124.925 147.833 124.627C147.915 124.51 147.627 123.907 147.442 123.869C146.717 123.722 146.384 124.195 146.035 124.69L146.035 124.69C145.968 124.785 145.901 124.88 145.831 124.971C145.541 125.349 145.259 125.737 144.976 126.126C144.098 127.33 143.216 128.54 142.108 129.475C140.339 130.966 138.481 132.351 136.622 133.737L136.622 133.737L136.622 133.737C135.3 134.722 133.979 135.707 132.689 136.731C131.886 137.368 131.295 137.321 130.519 136.883C130.425 136.83 130.331 136.778 130.237 136.725L130.008 136.596C128.198 135.579 126.402 134.571 124.836 133.132C122.823 131.282 120.711 129.54 118.599 127.799L118.598 127.798L118.597 127.798L118.596 127.797L118.596 127.796L118.595 127.796L118.594 127.795L118.594 127.795L118.593 127.794L118.592 127.793L118.591 127.793L118.591 127.792L118.59 127.792L118.589 127.791L118.589 127.79C117.988 127.295 117.387 126.8 116.789 126.303C116.232 125.839 116.332 125.552 116.811 125.113C118.419 123.643 119.281 121.824 119.515 119.629C119.529 119.495 119.534 119.348 119.539 119.195C119.561 118.503 119.587 117.695 120.513 117.479C121.403 117.271 122.066 117.853 122.597 118.497C122.938 118.911 123.263 119.338 123.589 119.765L123.589 119.765C123.994 120.296 124.399 120.827 124.833 121.333L124.915 121.428C125.745 122.397 126.66 123.464 128.104 122.965C130.122 122.267 132.16 122.137 134.258 122.112C134.854 122.105 135.682 121.659 135.988 121.159C136.493 120.334 136.867 119.427 137.24 118.521L137.24 118.52C137.385 118.17 137.529 117.819 137.681 117.474C138.216 116.256 138.773 115.801 140.114 116.289C140.696 116.501 141.467 116.67 141.994 116.46C143.038 116.045 143.236 116.548 143.528 117.295L143.565 117.387C144.248 119.118 144.944 120.855 146.593 121.984C147.681 122.728 148.912 122.934 150.144 123.141C150.259 123.16 150.373 123.179 150.488 123.199C151.559 123.382 152.634 123.547 153.709 123.711L153.71 123.711C155.256 123.948 156.802 124.185 158.337 124.478C162.336 125.241 165.764 127.295 168.702 129.953C170.753 131.81 172.411 134.148 174.027 136.428L174.073 136.494C175.247 138.149 176.201 139.968 177.15 141.776L177.15 141.776L177.297 142.057L177.414 142.279L177.478 142.401C177.773 142.961 178.071 143.52 178.368 144.079C179.726 146.634 181.086 149.192 182.238 151.838C183.571 154.901 184.787 158.015 186.002 161.129L186.003 161.131L186.003 161.132L186.004 161.133L186.004 161.134L186.005 161.136L186.005 161.137L186.005 161.137C186.594 162.647 187.184 164.156 187.786 165.66C187.988 166.163 188.053 166.483 187.44 166.772C187.011 166.974 186.601 167.221 186.191 167.467ZM107.921 99.1979C108.07 98.8611 108.22 98.5243 108.371 98.1887C109.559 95.4536 110.584 92.9291 110.732 90.0396C110.869 87.3514 110.18 84.9002 109.477 82.4022L109.476 82.3978C109.436 82.2549 109.395 82.1118 109.355 81.9685C109.135 81.1821 109.024 80.366 108.913 79.5492L108.913 79.5491C108.819 78.8524 108.724 78.1553 108.561 77.4755C108.184 75.8981 108.49 74.4002 108.795 72.9041L108.795 72.9041C108.953 72.1309 109.111 71.3582 109.174 70.5751C109.371 68.1499 109.94 65.8343 110.762 63.5798C111.828 60.6567 113.459 58.0348 115.239 55.4864C116.595 53.5464 118.359 52.1662 120.365 50.9913C121.168 50.5209 121.981 49.9322 122.525 49.2007C122.935 48.6494 123.278 48.4481 123.91 48.4568C124.602 48.4663 125.295 48.4559 125.988 48.4454C127.146 48.428 128.304 48.4105 129.455 48.4862C133.658 48.7625 137.656 49.8095 141.226 52.1353L141.396 52.2459C142.702 53.0964 144.033 53.9624 145.136 55.0409C146.543 56.4156 147.808 57.939 149.069 59.4582C149.266 59.6955 149.463 59.9328 149.661 60.1694C149.882 60.4342 149.94 60.8538 149.994 61.2455L149.994 61.2459C150.005 61.323 150.016 61.3989 150.027 61.4724C150.324 63.3542 150.605 65.2384 150.886 67.1227L150.886 67.1236L151.013 67.9737C151.071 68.3658 151.131 68.7578 151.19 69.1497C151.37 70.3354 151.55 71.5211 151.704 72.71C151.757 73.1156 151.81 73.5211 151.863 73.9267C152.178 76.3399 152.493 78.7536 152.738 81.1741C152.874 82.5155 152.906 83.8683 152.938 85.2195V85.2198C152.945 85.5166 152.952 85.8132 152.961 86.1097C152.978 86.7329 152.996 87.3562 153.014 87.9795L153.014 87.9805L153.014 87.9816L153.014 87.9827C153.087 90.4463 153.159 92.9102 153.16 95.3739C153.162 99.0516 152.351 102.616 151.263 106.098C150.593 108.238 149.757 110.328 148.921 112.414L148.921 112.414L148.921 112.414C148.773 112.785 148.625 113.154 148.478 113.525C148.357 113.827 147.891 114.106 147.539 114.181C146.565 114.389 145.57 114.528 144.576 114.602C144.174 114.631 143.678 114.524 143.363 114.292C142.973 114.005 142.903 113.999 142.69 114.448C142.187 115.508 141.582 115.761 140.416 115.348C139.38 114.98 138.369 114.849 137.589 115.705C137.157 116.18 136.871 116.797 136.591 117.4C136.54 117.511 136.489 117.621 136.438 117.729C136.302 118.015 136.221 118.326 136.14 118.638C136.098 118.8 136.056 118.961 136.006 119.119C135.521 120.661 134.907 121.194 133.332 121.092C131.616 120.98 129.952 121.226 128.369 121.775C127.037 122.237 126.414 121.517 125.743 120.742C125.674 120.663 125.605 120.583 125.535 120.504C125.345 120.291 125.156 120.076 124.966 119.862L124.966 119.861L124.965 119.86L124.965 119.86C124.047 118.82 123.127 117.778 122.129 116.821C121.755 116.462 121.035 116.317 120.479 116.331C119.899 116.344 119.322 116.442 118.744 116.54C118.368 116.604 117.992 116.668 117.615 116.708C116.81 116.796 116.179 116.345 115.94 115.664C115.606 114.713 115.419 113.693 115.304 112.688C115.222 111.965 114.963 111.416 114.276 111.292C112.584 110.987 111.652 109.924 110.846 108.483C110.277 107.463 109.55 106.53 108.824 105.598L108.824 105.598L108.824 105.597L108.824 105.597L108.824 105.597L108.824 105.597L108.824 105.597L108.824 105.597L108.824 105.597L108.824 105.597L108.824 105.597L108.824 105.597L108.824 105.597L108.824 105.597L108.824 105.597L108.824 105.597C108.548 105.242 108.271 104.887 108.004 104.528C107.827 104.29 107.633 104.064 107.439 103.839L107.439 103.839C107.258 103.629 107.077 103.419 106.91 103.199C106.537 102.707 106.519 102.201 106.805 101.622C107.199 100.825 107.56 100.012 107.921 99.1982L107.921 99.1979ZM153.625 79.4798L153.593 78.9276C153.379 77.6883 153.981 77.295 154.798 76.8255C155.941 76.1685 157.068 75.6062 158.398 75.7005C159.037 75.7458 159.573 76.0626 159.034 76.827C158.12 78.1235 157.187 79.4071 156.233 80.6743C155.801 81.2488 155.339 81.8018 154.878 82.3548L154.878 82.3553L154.877 82.3559L154.877 82.3564L154.876 82.357C154.715 82.5506 154.554 82.7441 154.393 82.9386C154.337 83.0073 154.267 83.0649 154.196 83.1224C154.164 83.1491 154.132 83.1757 154.1 83.2035C154.072 83.166 154.044 83.1289 154.015 83.0918C153.942 82.9977 153.868 82.9037 153.807 82.8023C153.788 82.7695 153.793 82.7227 153.798 82.6749C153.8 82.6483 153.803 82.6215 153.802 82.5967C153.743 81.5602 153.684 80.5238 153.625 79.4873L153.625 79.4863L153.625 79.4852L153.625 79.4841L153.625 79.483L153.625 79.482L153.625 79.4809L153.625 79.4798ZM108.241 83.1848C108.212 83.2318 108.183 83.2787 108.162 83.3242C107.593 83.0529 107.066 82.7289 106.543 82.4082L106.543 82.4082C106.086 82.1274 105.633 81.8491 105.159 81.6109C104.089 81.0723 103.713 80.0942 103.37 79.1221C102.976 78.0034 103.854 76.9347 105.043 76.9428C105.096 76.9432 105.149 76.9434 105.203 76.9436C105.627 76.9451 106.057 76.9466 106.465 77.036C107.266 77.2116 107.346 77.8325 107.422 78.4307V78.4307C107.446 78.6164 107.469 78.7998 107.514 78.9671C107.8 80.0377 108.009 81.1292 108.218 82.2197L108.218 82.2199L108.218 82.2224C108.261 82.4472 108.304 82.672 108.348 82.8966C108.365 82.9824 108.303 83.0836 108.241 83.1848ZM171.668 181.733L171.671 181.739L171.683 181.757C173.333 184.4 174.989 187.051 176.675 189.731C177.106 190.162 177.531 190.589 177.952 191.013C178.88 191.946 179.79 192.861 180.713 193.764C182.93 195.931 185.566 196.461 188.536 195.78C191.116 195.188 193.473 194.141 195.549 192.499C195.878 192.239 196.217 191.986 196.557 191.732C197.556 190.986 198.559 190.237 199.323 189.297C201.066 187.154 202.669 184.865 204.069 182.484C205.938 179.305 207.796 176.081 209.223 172.693C210.552 169.535 211.659 166.284 212.765 163.032L212.765 163.032L212.765 163.032L212.765 163.032L212.765 163.031L212.766 163.031L212.766 163.031L212.766 163.031L212.766 163.03L212.766 163.03L212.766 163.03L212.766 163.03L212.766 163.029L212.766 163.029L212.766 163.029L212.767 163.028C213.179 161.816 213.591 160.605 214.015 159.398L214.124 159.089L214.262 158.697L214.481 158.074C215.357 155.591 216.233 153.107 217.009 150.592C217.385 149.371 217.703 148.131 218.02 146.892L218.02 146.891L218.02 146.891L218.02 146.891L218.021 146.891L218.021 146.891L218.021 146.891L218.021 146.891L218.021 146.891L218.021 146.89L218.021 146.89L218.021 146.89L218.021 146.89L218.021 146.89L218.021 146.89C218.43 145.294 218.838 143.699 219.372 142.147C219.985 140.364 220.747 138.632 221.51 136.9C221.904 136.003 222.299 135.106 222.673 134.202C223.066 133.253 223.46 132.304 223.854 131.355L223.857 131.349L223.858 131.347C225.367 127.715 226.876 124.082 228.308 120.419C228.876 118.967 229.273 117.446 229.67 115.929C229.774 115.53 229.879 115.13 229.986 114.733C230.035 114.552 229.938 114.333 229.841 114.113C229.796 114.011 229.751 113.909 229.721 113.812C229.616 113.845 229.504 113.87 229.392 113.895C229.149 113.949 228.906 114.003 228.735 114.145C227.665 115.034 226.925 116.16 226.436 117.475C226.186 118.148 225.85 118.791 225.515 119.432L225.515 119.432L225.515 119.432C225.446 119.565 225.376 119.698 225.307 119.831C225.266 119.912 225.153 119.957 225.04 120.001C224.988 120.022 224.936 120.043 224.891 120.067C224.89 120.059 224.89 120.051 224.89 120.043C224.889 120.029 224.889 120.014 224.887 119.999L224.885 119.969L224.882 119.93C224.873 119.832 224.864 119.733 224.89 119.644C225.093 118.948 225.303 118.253 225.514 117.558L225.514 117.556L225.515 117.555C225.962 116.079 226.409 114.602 226.782 113.107C227.087 111.884 227.186 110.598 227.268 109.334C227.327 108.418 226.489 107.889 225.754 108.365C225.372 108.612 225.057 108.963 224.743 109.313L224.743 109.313C224.616 109.454 224.489 109.595 224.358 109.729C224.255 109.835 224.161 109.952 224.068 110.068C224.025 110.121 223.983 110.175 223.939 110.227C223.917 110.166 223.893 110.106 223.868 110.046C223.814 109.913 223.76 109.781 223.734 109.643C223.647 109.187 223.582 108.726 223.521 108.265C223.405 107.396 222.905 106.568 222.137 106.55C221.616 106.538 220.874 107.296 220.58 107.884C219.687 109.668 218.901 111.513 218.191 113.379C217.639 114.83 217.149 116.304 216.658 117.778L216.657 117.779C216.434 118.45 216.21 119.121 215.981 119.791C215.931 119.936 215.872 120.079 215.813 120.222L215.781 120.301C215.765 120.341 215.749 120.381 215.733 120.421C215.678 120.38 215.62 120.342 215.561 120.304L215.56 120.304C215.433 120.222 215.306 120.141 215.222 120.027C214.347 118.844 213.098 118.221 211.828 117.588L211.674 117.511C210.516 116.932 209.372 117.091 208.356 117.592C206.982 118.272 207.03 120.736 208.237 121.841C210.099 123.544 211.388 125.571 211.938 128.056C212.684 131.431 211.977 134.481 209.982 137.274L209.686 137.689C208.691 139.08 207.696 140.472 206.781 141.915C204.437 145.612 202.117 149.324 199.849 153.068L199.715 153.29C197.618 156.752 195.52 160.216 193.582 163.766C192.706 165.372 191.995 167.068 191.285 168.764C191.034 169.363 190.784 169.961 190.526 170.555C190.296 171.086 190.133 171.273 189.694 170.733C189.365 170.329 188.99 169.95 188.579 169.633C188.453 169.535 188.262 169.522 188.07 169.509C187.984 169.503 187.897 169.497 187.816 169.483C187.811 169.542 187.797 169.61 187.784 169.677C187.754 169.824 187.724 169.97 187.784 170.036C187.862 170.124 187.94 170.212 188.017 170.301C188.422 170.762 188.832 171.228 189.322 171.575C190.853 172.656 191.034 172.53 191.71 170.747C191.795 170.523 191.879 170.299 191.964 170.075L191.964 170.074C192.549 168.515 193.139 166.946 193.939 165.5C196.11 161.572 198.402 157.709 200.708 153.858C202.989 150.05 205.31 146.265 207.688 142.517C208.225 141.671 208.822 140.859 209.419 140.049L209.419 140.049C210.254 138.914 211.089 137.78 211.756 136.553C214.234 131.994 213.872 127.457 210.985 123.163C210.699 122.737 210.327 122.366 209.956 121.996C209.547 121.589 209.139 121.182 208.847 120.702C208.532 120.186 208.497 119.249 208.764 118.714C208.943 118.354 209.95 118.098 210.445 118.253C212.823 118.994 215.084 119.957 215.584 122.854C215.607 122.989 215.765 123.102 215.923 123.214C215.996 123.266 216.07 123.319 216.13 123.373C216.135 123.365 216.14 123.358 216.146 123.35L216.161 123.329C216.174 123.311 216.187 123.293 216.201 123.275L216.223 123.246C216.293 123.154 216.363 123.063 216.395 122.96C216.688 121.999 216.969 121.035 217.251 120.07L217.251 120.07L217.251 120.069L217.251 120.069L217.251 120.068L217.252 120.067L217.252 120.066L217.252 120.065L217.253 120.064L217.253 120.063L217.253 120.062L217.254 120.061L217.254 120.06L217.254 120.059L217.256 120.053L217.387 119.603C217.602 118.869 217.81 118.132 218.017 117.396C218.505 115.666 218.993 113.936 219.571 112.237C219.933 111.173 220.46 110.163 220.986 109.155L220.986 109.155L220.986 109.155L220.986 109.155L220.986 109.155L220.986 109.154L220.986 109.154L220.986 109.154L220.986 109.154L220.987 109.154L220.987 109.154L220.987 109.154C221.15 108.841 221.313 108.528 221.471 108.214C221.58 107.998 221.865 107.848 222.101 107.735C222.162 107.706 222.441 107.92 222.457 108.042C222.483 108.255 222.52 108.471 222.558 108.687C222.662 109.291 222.767 109.901 222.641 110.456C222.387 111.582 222.039 112.685 221.69 113.79L221.69 113.79L221.69 113.79L221.69 113.79L221.69 113.79L221.69 113.79L221.69 113.79L221.69 113.791L221.69 113.791L221.69 113.791L221.69 113.791L221.69 113.791L221.69 113.791L221.69 113.791L221.69 113.792C221.492 114.418 221.294 115.045 221.113 115.676C220.701 117.114 220.322 118.562 219.986 120.019C219.957 120.145 220.094 120.308 220.231 120.471C220.294 120.547 220.357 120.623 220.404 120.695C220.468 120.64 220.542 120.588 220.616 120.537L220.616 120.537C220.777 120.425 220.937 120.314 220.989 120.165C221.327 119.188 221.635 118.201 221.943 117.214C222.049 116.873 222.155 116.532 222.263 116.191C222.983 113.912 223.748 111.654 225.452 109.875C225.558 109.764 225.701 109.687 225.844 109.611L225.844 109.611L225.844 109.611C225.91 109.576 225.976 109.54 226.039 109.501C226.06 109.581 226.092 109.663 226.124 109.745C226.192 109.922 226.261 110.099 226.225 110.251C225.627 112.79 225.003 115.323 224.367 117.852C224.273 118.226 224.163 118.596 224.053 118.966C223.875 119.562 223.698 120.158 223.589 120.766C223.541 121.036 223.66 121.336 223.778 121.636C223.832 121.772 223.886 121.909 223.924 122.042C224.03 122.005 224.149 121.978 224.268 121.95C224.527 121.891 224.787 121.831 224.911 121.668C225.547 120.837 226.135 119.958 226.646 119.044C226.945 118.507 227.206 117.948 227.467 117.389L227.467 117.388L227.468 117.388L227.468 117.387L227.468 117.387L227.468 117.387L227.468 117.386L227.468 117.386L227.469 117.386L227.469 117.385L227.469 117.385L227.469 117.384L227.469 117.384L227.47 117.384L227.47 117.383L227.47 117.383L227.47 117.383C227.686 116.919 227.903 116.456 228.141 116.004C228.228 115.842 228.411 115.73 228.595 115.619C228.679 115.568 228.764 115.517 228.839 115.461C228.83 115.545 228.826 115.63 228.822 115.716C228.815 115.901 228.807 116.086 228.744 116.251C228.652 116.494 228.56 116.738 228.468 116.982C227.809 118.729 227.149 120.477 226.44 122.203C226.148 122.914 225.821 123.61 225.495 124.306L225.494 124.307L225.494 124.307L225.494 124.307L225.494 124.308L225.494 124.308L225.493 124.309L225.493 124.309L225.493 124.31L225.493 124.31L225.493 124.31L225.493 124.311L225.492 124.311L225.492 124.312L225.492 124.312C225.175 124.987 224.858 125.661 224.574 126.349C224.042 127.634 223.529 128.928 223.017 130.221C222.103 132.524 221.19 134.828 220.17 137.083C218.726 140.278 217.571 143.555 216.607 146.912C216.222 148.251 215.828 149.587 215.386 150.907C214.915 152.318 214.427 153.723 213.939 155.128L213.939 155.128L213.939 155.129L213.939 155.129L213.939 155.129L213.939 155.129L213.939 155.129L213.939 155.129L213.939 155.13L213.939 155.13L213.939 155.13L213.938 155.13L213.938 155.13L213.938 155.13L213.938 155.131C212.985 157.876 212.032 160.621 211.2 163.403C209.975 167.499 208.612 171.528 206.805 175.401C204.879 179.529 202.501 183.407 199.731 187.002C198.43 188.691 196.787 190.257 194.989 191.386C192.938 192.675 190.739 193.865 188.28 194.359C186.645 194.687 184.997 194.88 183.497 194.015C180.737 192.424 178.675 190.051 176.855 187.51C175.484 185.595 174.186 183.627 172.889 181.659L172.888 181.657C172.142 180.525 171.395 179.393 170.635 178.271C170.511 178.088 170.294 177.967 170.078 177.847C169.978 177.791 169.877 177.735 169.786 177.673C169.782 177.777 169.776 177.882 169.77 177.986C169.755 178.264 169.74 178.542 169.755 178.818C169.758 178.877 169.823 178.927 169.892 178.982C169.946 179.023 170.002 179.067 170.033 179.117L170.894 180.495L171.668 181.733ZM162.805 238.773C162.681 239.421 162.58 240.067 162.479 240.708C162.238 242.242 162.003 243.742 161.484 245.137C160.531 247.702 158.325 249.252 155.777 250.04C153.272 250.816 150.701 251.384 148.135 251.95L148.134 251.95C147.833 252.017 147.532 252.083 147.232 252.15C146.55 252.301 145.84 252.324 145.13 252.346H145.13C144.848 252.354 144.567 252.363 144.288 252.38C142.879 252.465 141.471 252.548 140.062 252.63C137.929 252.755 135.796 252.88 133.664 253.013C132.796 253.067 131.929 253.134 131.062 253.2L131.059 253.2H131.058H131.058H131.058H131.058H131.057H131.057H131.057H131.057H131.056H131.056H131.056H131.056H131.055C129.994 253.281 128.933 253.362 127.871 253.421L127.353 253.45L127.353 253.45C125.671 253.545 123.987 253.64 122.306 253.614C121.134 253.596 119.963 253.454 118.794 253.312L118.794 253.312C118.488 253.275 118.182 253.238 117.876 253.203C117.753 253.189 117.642 253.072 117.53 252.955C117.478 252.901 117.427 252.847 117.374 252.803C117.415 252.759 117.454 252.705 117.493 252.652C117.579 252.535 117.664 252.418 117.768 252.399C117.876 252.378 117.985 252.356 118.094 252.334C118.584 252.234 119.085 252.132 119.559 252.193C122.838 252.616 126.091 252.34 129.35 251.973C130.944 251.793 132.546 251.683 134.147 251.573L134.148 251.573L134.514 251.548C135.626 251.471 136.74 251.408 137.854 251.345H137.854L137.854 251.345H137.855L137.855 251.345H137.855L137.856 251.345H137.856L137.856 251.345H137.857L137.857 251.345H137.857L137.858 251.345L137.858 251.345L137.859 251.345L137.859 251.345L137.86 251.345L137.86 251.345L137.861 251.345L137.861 251.345L137.862 251.345L137.862 251.345L137.863 251.345L137.863 251.345L137.864 251.344L137.864 251.344L137.865 251.344C139.978 251.225 142.09 251.105 144.194 250.893C148.28 250.481 152.321 249.748 156.145 248.178C158.355 247.271 159.876 245.545 160.453 243.268L160.511 243.038C161.148 240.53 161.795 237.981 161.538 235.343C161.478 234.728 161.377 234.115 161.275 233.502L161.275 233.502C161.119 232.562 160.963 231.624 160.959 230.683C160.954 229.447 161.045 228.21 161.136 226.973C161.215 225.896 161.295 224.818 161.31 223.739C161.324 222.778 161.199 221.814 161.073 220.85C161.019 220.44 160.966 220.03 160.923 219.621C160.886 219.265 160.851 218.909 160.817 218.552C160.725 217.604 160.632 216.656 160.494 215.715C159.995 212.329 159.801 208.93 159.858 205.507C159.873 204.611 159.817 203.713 159.761 202.816C159.723 202.207 159.685 201.598 159.67 200.989C159.634 199.62 159.609 198.251 159.583 196.882C159.547 194.931 159.511 192.979 159.445 191.029C159.391 189.426 159.299 187.825 159.207 186.224C159.148 185.197 159.089 184.17 159.04 183.143C159 182.301 158.971 181.458 158.943 180.616L158.943 180.615C158.909 179.602 158.875 178.59 158.821 177.578C158.782 176.859 158.715 176.139 158.649 175.419C158.524 174.066 158.399 172.714 158.458 171.369C158.523 169.91 158.78 168.459 159.037 167.008C159.152 166.361 159.266 165.713 159.364 165.065C159.429 164.632 159.496 164.199 159.563 163.766L159.563 163.766L159.563 163.765L159.563 163.765L159.563 163.765L159.563 163.765L159.563 163.765L159.563 163.764L159.563 163.764L159.563 163.764L159.563 163.764L159.563 163.764L159.563 163.764L159.563 163.763C159.745 162.588 159.927 161.412 160.075 160.233C160.158 159.566 160.22 158.897 160.282 158.228C160.353 157.454 160.424 156.68 160.529 155.911C160.553 155.74 160.745 155.593 160.937 155.445C161.026 155.377 161.115 155.309 161.187 155.239C161.225 155.32 161.276 155.402 161.327 155.484C161.437 155.661 161.547 155.838 161.529 156.001C161.284 158.227 161.003 160.449 160.71 162.669C160.6 163.496 160.465 164.323 160.329 165.149L160.329 165.149C160.048 166.863 159.767 168.576 159.72 170.296C159.654 172.749 159.8 175.209 159.947 177.667V177.668V177.668V177.668V177.668V177.668V177.668V177.669V177.669V177.669V177.669V177.669V177.67V177.67C159.997 178.515 160.048 179.36 160.089 180.204C160.15 181.444 160.234 182.682 160.318 183.921L160.318 183.921L160.318 183.921L160.318 183.921L160.318 183.922L160.319 183.922L160.319 183.922L160.319 183.923L160.319 183.923L160.319 183.923L160.319 183.924L160.319 183.924L160.319 183.924L160.319 183.925C160.382 184.859 160.446 185.794 160.499 186.729C160.536 187.371 160.573 188.012 160.61 188.654V188.654V188.654V188.654V188.654V188.654V188.654V188.654V188.655V188.655V188.655V188.655V188.655V188.655C160.794 191.833 160.978 195.012 161.12 198.192C161.172 199.357 161.192 200.524 161.212 201.691V201.691V201.692V201.692V201.692C161.238 203.219 161.264 204.745 161.362 206.267C161.478 208.071 161.676 209.87 161.874 211.669C161.978 212.613 162.081 213.558 162.174 214.504C162.331 216.119 162.474 217.736 162.59 219.354L162.604 219.552L162.619 219.755L162.646 220.105C162.731 221.221 162.817 222.34 162.786 223.453C162.754 224.596 162.684 225.739 162.613 226.881L162.613 226.881C162.522 228.379 162.43 229.877 162.423 231.375C162.42 232.147 162.563 232.918 162.707 233.69C162.82 234.298 162.933 234.907 162.975 235.518C163.023 236.22 162.959 236.929 162.892 237.671L162.892 237.671C162.859 238.03 162.826 238.397 162.805 238.773ZM85.8214 242.601C86.7005 246.329 89.1095 249.093 92.1984 251.387L92.4548 251.49C93.8017 252.029 95.0975 252.548 96.4195 252.987C96.6727 253.071 96.9691 253.026 97.2656 252.98C97.4017 252.959 97.5378 252.938 97.6697 252.93C97.6332 252.891 97.5969 252.853 97.5606 252.814L97.4452 252.691L97.4416 252.687C97.2193 252.45 96.997 252.213 96.7632 251.988C96.7331 251.959 96.6752 251.963 96.614 251.968C96.5615 251.972 96.5066 251.976 96.465 251.959C96.1195 251.82 95.7573 251.702 95.3948 251.584C94.5653 251.313 93.735 251.041 93.1044 250.526C91.5661 249.269 90.1633 247.792 88.9364 246.225C87.7239 244.676 87.1057 242.816 87.2199 240.774C87.2612 240.036 87.2834 239.296 87.3055 238.556C87.3368 237.51 87.3681 236.465 87.4534 235.424C87.5183 234.633 87.6415 233.846 87.7648 233.06C87.8735 232.366 87.9823 231.672 88.051 230.975C88.2014 229.448 88.2953 227.915 88.3891 226.383L88.3891 226.383C88.4116 226.017 88.434 225.651 88.4572 225.285C88.466 225.146 88.3748 224.952 88.2653 224.869C88.175 224.8 87.9203 224.798 87.8572 224.871C87.8132 224.921 87.7658 224.973 87.7177 225.025C87.5073 225.253 87.2821 225.498 87.2504 225.757C87.1179 226.839 87.0258 227.926 86.9337 229.013L86.9337 229.014L86.9336 229.014L86.9336 229.014L86.9336 229.014L86.9336 229.014L86.9336 229.014L86.9336 229.014L86.9336 229.015L86.9336 229.015L86.9336 229.015L86.9335 229.015L86.9335 229.015C86.8917 229.509 86.8498 230.003 86.8041 230.497C86.7904 230.645 86.7596 230.792 86.7288 230.939C86.7054 231.051 86.682 231.162 86.6661 231.275C86.5772 231.901 86.4812 232.527 86.3853 233.153C86.1533 234.666 85.9213 236.179 85.7887 237.701C85.7786 237.817 85.7683 237.934 85.7579 238.05C85.6226 239.572 85.4815 241.159 85.8214 242.601ZM141.954 137.378L141.954 137.378C144.223 135.846 146.463 134.333 148.299 132.33C149.267 131.273 150.125 130.116 150.984 128.959L150.984 128.959L150.984 128.959L150.984 128.959L150.984 128.958L150.984 128.958L150.984 128.958L150.985 128.958L150.985 128.958L150.985 128.957L150.985 128.957L150.985 128.957C151.362 128.448 151.74 127.94 152.126 127.439C152.169 127.384 152.206 127.318 152.242 127.253C152.308 127.134 152.373 127.018 152.472 126.967C152.674 126.866 152.898 126.809 153.122 126.753C153.216 126.729 153.309 126.706 153.401 126.679C153.371 126.771 153.348 126.869 153.325 126.966C153.275 127.176 153.226 127.385 153.108 127.546C152.868 127.877 152.628 128.209 152.388 128.541C151.421 129.882 150.454 131.223 149.4 132.492C148.45 133.636 147.402 134.742 146.231 135.65C144.199 137.226 142.11 138.757 139.91 140.083C137.504 141.532 134.978 142.799 132.437 144.004C131.178 144.602 129.805 144.524 128.558 143.712C124.789 141.256 121.113 138.678 117.98 135.417C117.113 134.515 116.312 133.543 115.555 132.547C115.432 132.386 115.448 132.119 115.464 131.852C115.472 131.729 115.479 131.606 115.473 131.493C115.586 131.514 115.711 131.523 115.836 131.532C116.109 131.551 116.382 131.57 116.522 131.716C116.902 132.111 117.249 132.536 117.596 132.962L117.596 132.962L117.596 132.962L117.596 132.962L117.597 132.962L117.597 132.962C117.999 133.455 118.401 133.948 118.853 134.391C120.019 135.534 121.245 136.627 122.526 137.64C124.062 138.854 125.641 140.014 127.22 141.174C127.571 141.431 127.921 141.688 128.271 141.946C128.503 142.117 128.752 142.263 129.001 142.409L129.001 142.409C129.26 142.562 129.519 142.714 129.758 142.893C130.755 143.642 131.614 143.151 132.402 142.702C132.597 142.59 132.789 142.481 132.976 142.394C134.844 141.528 136.649 140.529 138.481 139.515L138.481 139.514L138.484 139.513C139.068 139.19 139.654 138.865 140.246 138.543C140.813 138.148 141.384 137.762 141.954 137.378ZM220.736 127.982C221.045 127.603 221.359 127.216 221.687 126.819C221.91 126.794 222.122 126.791 222.327 126.788H222.328C222.554 126.785 222.772 126.782 222.985 126.75C223.165 126.723 223.333 126.62 223.501 126.518L223.501 126.518C223.577 126.472 223.652 126.426 223.728 126.387C223.668 126.317 223.611 126.235 223.555 126.153C223.433 125.976 223.311 125.799 223.146 125.738C221.59 125.158 218.844 127.292 218.927 129.007C218.934 129.167 219.027 129.324 219.119 129.48C219.162 129.552 219.205 129.625 219.24 129.697C219.293 129.644 219.348 129.592 219.404 129.541C219.524 129.428 219.644 129.316 219.748 129.19C220.077 128.791 220.403 128.391 220.736 127.982ZM142.759 99.1831C143.262 99.3023 143.712 99.4738 144.163 99.6453L144.163 99.6454C144.095 99.7596 144.033 99.8805 143.972 100.001C143.839 100.262 143.706 100.523 143.507 100.717C141.078 103.096 138.119 104.486 134.827 105.176C134.428 105.26 133.983 105.15 133.549 105.043C133.417 105.011 133.287 104.978 133.159 104.952C133.04 104.927 132.861 104.604 132.882 104.581C132.929 104.531 132.976 104.476 133.024 104.421C133.201 104.217 133.389 104 133.6 103.968C136.9 103.474 139.667 101.958 142.059 99.6818C142.172 99.5742 142.305 99.4877 142.452 99.3923C142.549 99.3294 142.652 99.2625 142.759 99.1831ZM216.391 129.684C216.884 128.458 216.486 127.295 216.034 126.086C215.914 125.948 215.798 125.813 215.684 125.68L215.684 125.68C215.357 125.3 215.05 124.944 214.728 124.601C214.707 124.579 214.316 124.833 214.328 124.861C214.49 125.246 214.682 125.619 214.888 125.983C215.522 127.099 215.604 128.311 215.581 129.558C215.578 129.731 215.681 129.907 215.784 130.083C215.832 130.164 215.88 130.245 215.917 130.325C215.967 130.259 216.023 130.194 216.079 130.13L216.08 130.13L216.08 130.13L216.08 130.129L216.08 130.129L216.08 130.129L216.081 130.129C216.203 129.988 216.326 129.848 216.391 129.684ZM127.427 58.2259L127.427 58.226C128.425 58.738 129.401 59.2392 130.437 59.4618L130.599 59.4966C132.149 59.831 133.817 60.1909 135.375 59.3448C135.921 59.0483 136.435 58.6832 136.932 58.3087C137.236 58.0802 137.509 57.7966 137.747 57.4992C139.641 55.1382 141.039 55.4908 143.647 57.0323C146.983 59.0045 148.199 62.3707 149.373 65.7197C149.96 67.3926 150.329 69.1471 150.696 70.8922L150.696 70.8923L150.696 70.8923L150.696 70.8924L150.696 70.8925L150.696 70.8926L150.696 70.8927L150.696 70.8928L150.697 70.8963L150.698 70.9007L150.699 70.9047C150.747 71.1351 150.796 71.3654 150.845 71.5953C151.087 72.7356 151.189 73.9114 151.28 75.0771C151.386 76.4593 151.437 77.8463 151.487 79.2324L151.487 79.2333L151.496 79.4884C151.524 80.2472 151.539 81.0069 151.553 81.7666V81.7668V81.767V81.7672V81.7674V81.7676V81.7677V81.7679V81.7681C151.582 83.2482 151.61 84.728 151.735 86.1999C151.926 88.4514 151.566 90.6215 151.064 92.7742C150.485 95.2532 148.601 96.4484 146.317 97.0054C145.355 97.24 144.35 97.3078 143.348 97.3754L143.348 97.3755C143.002 97.3988 142.656 97.4222 142.313 97.4523C138.776 97.7629 135.262 98.2006 131.846 99.2135C130.786 99.5276 129.774 99.383 128.885 98.7924C127.092 97.6001 125.066 97.1642 123 96.8301C119.147 96.207 115.489 95.156 112.665 92.2253C111.92 91.4517 111.442 90.6236 111.49 89.4585C111.575 87.3922 111.277 85.3585 110.979 83.3271V83.3271V83.327V83.327V83.327V83.3269V83.3269V83.3269C110.809 82.1667 110.639 81.0072 110.54 79.8428C110.242 76.322 110.373 72.7849 111.449 69.2782C112.65 65.3671 114.481 61.912 117.387 59.0918C118.185 58.3171 119.15 57.7146 120.115 57.1117C120.586 56.8175 121.057 56.5231 121.509 56.2086L121.585 56.1558L121.585 56.1557C122.079 55.812 122.579 55.4649 123.015 55.0544C123.678 54.4293 124.081 54.7594 124.495 55.3341C124.99 56.0202 125.505 56.6922 126.053 57.4076L126.053 57.4078L126.219 57.6253C126.629 57.8159 127.03 58.0218 127.427 58.2259ZM147.626 63.9584C147.571 63.8265 147.515 63.6946 147.459 63.5628C147.339 63.279 147.219 62.9951 147.104 62.7094C146.002 59.9882 144.054 58.0787 141.388 56.9303C140.974 56.7519 140.253 56.8554 139.879 57.1194C139.568 57.3391 139.35 57.6843 139.13 58.0325C139.005 58.2294 138.88 58.4272 138.737 58.6038C137.462 60.1814 135.966 61.4147 133.783 61.2203C132.432 61.0999 131.067 60.9265 129.759 60.5837C127.708 60.0464 125.842 59.082 124.515 57.3628L124.386 57.1947C123.515 56.0604 123.504 56.0463 122.316 56.8435C121.925 57.1061 121.523 57.3578 121.12 57.6096L121.12 57.6097L121.12 57.6097L121.12 57.6098L121.12 57.6098L121.119 57.6099L121.119 57.61L121.119 57.61C120.115 58.2379 119.11 58.8666 118.272 59.668C115.437 62.3779 113.575 65.6355 112.458 69.4914C111.451 72.9668 111.39 76.4125 111.555 79.8971C111.69 82.7268 112.14 85.5493 112.59 88.3526L112.619 88.5382C112.816 89.7799 113.018 91.057 114.102 92.0182C116.155 93.8388 118.588 94.8184 121.203 95.3396C121.558 95.4103 121.912 95.4784 122.267 95.5464L122.268 95.5466C124.762 96.0252 127.241 96.501 129.487 97.8428C130.012 98.1559 130.805 98.2249 131.43 98.127C132.837 97.9068 134.239 97.6503 135.641 97.3938L135.641 97.3937L135.641 97.3937L135.641 97.3937L135.641 97.3936L135.642 97.3936L135.642 97.3936L135.642 97.3935L135.642 97.3935C137.095 97.1276 138.548 96.8617 140.007 96.6363C140.834 96.5084 141.672 96.4395 142.509 96.3706C143.652 96.2766 144.794 96.1827 145.905 95.9392C147.434 95.6038 149.154 95.0851 149.65 93.2951C150.132 91.5555 150.548 89.7466 150.614 87.9542C150.705 85.4765 150.601 82.9897 150.496 80.5063V80.5063V80.5062V80.5061V80.506V80.5059V80.5058V80.5057C150.477 80.054 150.458 79.6025 150.441 79.1511C150.404 78.2315 150.327 77.3134 150.25 76.3954V76.3953V76.3953V76.3952V76.3951V76.3951V76.395V76.3949C150.164 75.3841 150.079 74.3733 150.049 73.3607C149.954 70.2057 148.877 67.3132 147.756 64.3077L147.626 63.9584ZM145.492 74.3993C143.719 73.0146 141.641 72.731 139.357 72.9609C139.144 72.9988 138.964 73.0412 138.797 73.0804L138.797 73.0805C138.657 73.1133 138.527 73.1439 138.396 73.1678C136.237 73.5602 134.386 74.4415 133.115 76.3361C132.981 76.5349 132.483 76.6357 132.208 76.5667C130.995 76.2626 129.868 76.237 128.926 77.2178C128.809 77.3393 128.701 77.4688 128.593 77.5982C128.543 77.6578 128.493 77.7173 128.442 77.7761C128.423 77.6894 128.397 77.6021 128.37 77.5148L128.37 77.5146C128.313 77.3261 128.256 77.1376 128.272 76.9554C128.46 74.7878 127.422 73.4383 125.532 72.5269C123.762 71.674 121.904 71.4921 119.992 71.4944C117.081 71.498 114.602 73.3832 113.578 76.1402C112.953 77.8238 113.123 79.4609 113.662 81.0161C114.188 82.534 114.786 84.1567 116.349 84.9984C116.547 85.1049 116.746 85.2166 116.947 85.329L116.947 85.3293C117.865 85.8445 118.811 86.3749 119.788 86.4918L119.933 86.5093L120.053 86.5239C121.503 86.7016 123.058 86.8922 124.428 85.9135C126.498 84.4341 127.628 82.3431 128.227 79.9701C128.51 78.8502 129.082 78.1765 130.08 77.7289C131.583 77.0553 132.525 77.6477 132.682 79.2038C132.865 81.0238 133.266 82.8142 134.333 84.3733C135.582 86.2 137.279 87.3108 139.374 88.0834C141.899 89.0144 143.713 88.447 145.544 86.9667C148.946 84.2158 149.284 77.3625 145.492 74.3993ZM137.591 74.4818C139.018 74.0562 140.567 73.9186 142.078 74.3217C143.795 74.4509 144.922 75.4186 145.754 76.5941C146.589 77.7739 147.346 79.1114 147.292 80.6407C147.235 82.2811 146.618 83.7581 145.588 85.0486C144.703 86.156 143.551 86.8637 142.184 87.1672C141.898 87.2308 141.575 87.1479 141.258 87.0661C141.144 87.0369 141.031 87.0078 140.92 86.9857C137.283 86.2563 134.848 84.2644 134.123 80.487C134.077 80.2462 134.018 80.0073 133.96 79.7691L133.96 79.7689C133.725 78.8111 133.492 77.8639 134.08 76.8407C134.884 75.4404 136.248 74.8824 137.591 74.4818ZM127.001 76.9491C127.228 78.8738 126.605 80.6045 125.748 82.2773C125.576 82.5062 125.428 82.7241 125.288 82.93L125.288 82.9301L125.288 82.9301L125.288 82.9302C125.083 83.2315 124.896 83.507 124.676 83.7532C123.466 85.1093 122.019 85.5354 120.182 85.148C118.895 84.8764 117.75 84.5433 116.68 83.7246C115.391 82.7382 114.838 81.377 114.468 79.9447C113.879 77.6627 114.682 75.7472 116.318 74.1087C117.639 72.7856 119.309 72.621 120.978 72.7887C122.584 72.9502 124.153 73.3489 125.571 74.2995C126.587 74.981 126.876 75.884 127.001 76.9491ZM126.586 68.9831C127.651 69.043 128.535 68.9305 129.342 68.2794C129.489 68.1601 129.799 68.2417 130.109 68.3233C130.251 68.3608 130.394 68.3982 130.52 68.4162C130.46 68.4851 130.403 68.5561 130.345 68.6272L130.345 68.6272C130.22 68.7808 130.096 68.9345 129.951 69.0655C128.601 70.2851 127.117 70.1999 125.474 69.6918C124.039 69.2477 122.531 68.905 121.037 68.8122C118.794 68.6729 116.875 69.5458 115.374 71.2758C115.245 71.4252 115.044 71.513 114.844 71.6009C114.751 71.6415 114.658 71.6822 114.572 71.7291C114.599 71.608 114.615 71.4767 114.63 71.3454C114.663 71.0628 114.696 70.7802 114.85 70.5991C117.353 67.639 120.614 67.5165 124.065 68.2548C124.549 68.3582 125.022 68.5074 125.516 68.6628L125.516 68.6629L125.517 68.6629C125.86 68.771 126.213 68.8821 126.586 68.9831ZM143.11 69.7319C141.071 69.4192 139.041 69.4545 137.211 70.815C136.943 71.0124 136.68 71.2014 136.421 71.3873C135.902 71.7596 135.4 72.1192 134.923 72.5085C134.816 72.5963 134.799 72.7957 134.782 72.9951C134.775 73.0869 134.767 73.1787 134.751 73.2596C134.822 73.2504 134.897 73.2473 134.973 73.2442H134.973C135.139 73.2374 135.305 73.2306 135.433 73.1568C135.798 72.9452 136.129 72.6708 136.457 72.4L136.472 72.3873C138.503 70.7079 140.759 70.0299 143.359 70.7823C144.263 71.0439 145.175 71.2847 146.095 71.4765C146.245 71.5077 146.417 71.4283 146.589 71.3489C146.668 71.3124 146.748 71.2759 146.825 71.2501C146.766 71.1879 146.711 71.1155 146.656 71.0431C146.537 70.886 146.417 70.7288 146.262 70.6754C146.065 70.6074 145.867 70.5371 145.669 70.4667C144.828 70.167 143.98 69.8654 143.11 69.7319ZM132.081 91.6462C130.854 91.7334 129.678 91.805 128.505 91.7714C128.35 91.767 128.2 91.57 128.05 91.3731C127.981 91.2823 127.912 91.1915 127.842 91.1195C127.932 91.0814 128.022 91.0343 128.112 90.9872C128.307 90.8845 128.503 90.7818 128.703 90.7728C129.783 90.7237 130.867 90.7273 131.948 90.7393C132.207 90.7422 132.465 90.7837 132.723 90.8251C132.84 90.844 132.958 90.8629 133.076 90.8782L133.076 90.8784C132.762 91.1169 132.448 91.3554 132.081 91.6462ZM138.57 76.5737C137.825 77.4019 137.906 79.1459 138.781 80.0268C140.554 80.0791 141.618 78.3008 140.792 76.8044C140.334 75.9736 139.215 75.8574 138.57 76.5737ZM122.817 75.4732C123.191 76.5759 122.946 77.718 122.114 78.3333C121.872 78.5121 121.259 78.5679 121.088 78.4012C120.126 77.462 119.965 75.8725 121.342 75.0474C121.969 74.6716 122.416 74.8457 122.817 75.4732ZM190.656 70.4314C191.197 71.2442 191.742 72.0627 192.481 72.7632C192.529 74.3508 192.544 75.8316 192.136 77.2792C192.063 77.5388 192.117 77.7832 192.172 78.03C192.216 78.2312 192.507 78.376 192.676 78.2796C192.896 78.1548 193.112 78.0224 193.318 77.8768C193.456 77.779 193.593 77.6798 193.731 77.5806C194.314 77.1595 194.897 76.7386 195.549 76.422C195.628 76.3835 195.708 76.3454 195.788 76.3073C196.09 76.1622 196.393 76.0171 196.682 75.8476C197.001 75.66 197.31 75.6336 197.653 75.7504C198.833 76.153 200.05 76.4024 201.267 76.6517C201.461 76.6914 201.655 76.7312 201.849 76.7716C201.908 76.7838 201.966 76.7969 202.024 76.8099C202.172 76.8432 202.321 76.8766 202.471 76.8952C202.955 76.9557 203.441 77.0024 203.926 77.0492C204.704 77.1241 205.482 77.199 206.253 77.33C206.419 77.3584 206.594 77.3704 206.76 77.3484C207.152 77.2964 207.546 77.2612 207.94 77.226C208.727 77.1558 209.515 77.0856 210.283 76.8808C210.809 76.7408 211.331 76.584 211.852 76.4272C212.061 76.3646 212.269 76.302 212.478 76.2404C212.574 76.2119 212.671 76.1833 212.768 76.1548C213.32 75.9919 213.873 75.829 214.424 75.6612C214.584 75.6124 214.744 75.5524 214.894 75.4772C215.024 75.4121 215.154 75.3473 215.284 75.2826C216.364 74.7447 217.442 74.2075 218.421 73.4792C218.544 73.3875 218.669 73.2984 218.794 73.2093C219.185 72.9307 219.574 72.653 219.908 72.2992C220.11 72.0849 220.335 71.8912 220.559 71.6987L220.562 71.6964C221.211 71.1392 221.732 70.4728 222.213 69.7736C222.815 68.8988 223.06 67.8873 223.306 66.877L223.32 66.8188C223.29 66.4596 223.359 66.1136 223.429 65.7674C223.459 65.6163 223.489 65.4651 223.511 65.3128C223.818 63.1876 223.545 61.1776 222.278 59.3724C222.123 59.1521 221.995 58.9127 221.867 58.6735C221.815 58.5758 221.762 58.478 221.708 58.3816C221.397 57.8248 221.048 57.2952 220.592 56.8432C219.597 55.856 218.545 54.9472 217.306 54.2628C216.426 53.777 215.509 53.3811 214.59 52.9844C214.382 52.8948 214.175 52.8052 213.967 52.7144C212.356 52.0096 210.679 51.6176 208.944 51.4412C208.409 51.387 207.872 51.359 207.334 51.331C207.067 51.3171 206.801 51.3032 206.534 51.286C205.052 51.1904 203.568 51.1576 202.087 51.276C200.821 51.3771 199.557 51.4975 198.293 51.618C198.04 51.6421 197.788 51.6661 197.535 51.69C197.412 51.7016 197.288 51.7496 197.175 51.8032C196.582 52.0851 195.97 52.3205 195.358 52.556C195.024 52.6844 194.69 52.8129 194.359 52.9488C192.919 53.5408 191.683 54.3904 190.806 55.71C190.68 55.9009 190.541 56.0834 190.402 56.2658C190.284 56.4204 190.166 56.5749 190.056 56.7344C189.257 57.8916 188.576 59.1084 188.296 60.5056C188.241 60.7797 188.209 61.0581 188.176 61.3367C188.154 61.5208 188.133 61.705 188.105 61.888C187.963 62.8128 187.955 63.7216 188.142 64.654C188.462 66.2508 189.119 67.7112 189.792 69.172C189.809 69.21 189.834 69.2456 189.859 69.2796C190.138 69.6531 190.396 70.0416 190.656 70.4314ZM193.262 76.4116C193.255 76.4121 193.249 76.4128 193.242 76.4136C193.238 76.4212 193.248 76.432 193.273 76.4456C193.269 76.4343 193.265 76.4229 193.262 76.4116ZM193.366 76.4078C193.331 76.4082 193.296 76.4086 193.262 76.4116C193.191 76.1706 193.23 75.9271 193.298 75.6956C193.464 75.1292 193.536 74.5478 193.608 73.9665C193.651 73.6233 193.693 73.2801 193.755 72.94C193.794 72.726 193.746 72.5076 193.519 72.4024C192.796 72.0688 192.325 71.4632 191.873 70.8516C191.497 70.3416 191.139 69.8088 190.847 69.2476C190.575 68.7256 190.373 68.1616 190.188 67.6004C189.95 66.8768 189.745 66.1416 189.554 65.404C189.382 64.744 189.365 64.0628 189.371 63.384C189.372 63.2368 189.382 63.0894 189.392 62.942C189.405 62.7503 189.418 62.5587 189.412 62.3676C189.343 60.282 190.182 58.4976 191.252 56.7916C191.925 55.7196 192.89 54.9364 193.992 54.3812C195.274 53.7352 196.606 53.1688 198.023 52.8664C199.349 52.5836 200.682 52.3492 202.044 52.3036C202.547 52.2868 203.044 52.2596 203.542 52.0884C203.886 51.9703 204.279 51.9734 204.658 51.9764C204.705 51.9767 204.751 51.9771 204.798 51.9772C205.306 51.9788 205.815 52.0128 206.32 52.0688C206.364 52.0737 206.408 52.0786 206.452 52.0836C206.955 52.1398 207.456 52.1958 207.965 52.2024C208.304 52.2071 208.644 52.2811 208.979 52.3541C209.017 52.3624 209.055 52.3707 209.093 52.3788C209.981 52.5702 210.843 52.8512 211.705 53.1322C212.252 53.3104 212.799 53.4886 213.352 53.644C213.67 53.7989 213.987 53.9532 214.304 54.1074C215.014 54.4523 215.723 54.7971 216.43 55.1492C217.807 55.8358 218.902 56.8858 219.996 57.9345L220.112 58.0456C220.866 58.7676 221.314 59.6892 221.647 60.6508C221.965 61.5688 222.186 62.5168 222.252 63.5C222.364 65.1384 222.082 66.6968 221.501 68.2272C220.896 69.8212 219.919 71.1448 218.572 72.14C216.831 73.4256 214.935 74.4664 212.866 75.148C211.984 75.4388 211.102 75.7288 210.186 75.92C208.806 76.208 207.412 76.2324 206.013 76.2472C205.956 76.2478 205.899 76.2451 205.842 76.2424C205.772 76.2391 205.702 76.2358 205.632 76.2384C203.091 76.3332 200.678 75.708 198.292 74.9324C198.064 74.8583 197.834 74.7922 197.603 74.7262C197.468 74.6875 197.333 74.6488 197.198 74.6084C196.937 74.53 196.692 74.574 196.471 74.7228C196.045 75.0102 195.588 75.2443 195.131 75.4785C194.608 75.7464 194.085 76.0144 193.607 76.362C193.548 76.4056 193.457 76.4067 193.366 76.4078Z" fill="#00160A"/>
<path fill-rule="evenodd" clip-rule="evenodd" d="M163.024 143.531C163.208 143.37 163.395 143.206 163.59 143.044C163.72 142.873 163.852 142.71 163.982 142.551L163.982 142.551L163.982 142.551C164.297 142.164 164.596 141.796 164.805 141.384C165.324 140.36 165.048 139.991 163.954 139.5C163.455 139.276 162.998 138.963 162.539 138.65C162.239 138.445 161.938 138.24 161.625 138.059L161.555 138.018C161.132 137.773 160.67 137.505 160.21 137.467C157.798 137.268 155.732 140.449 156.692 142.753C157.685 145.135 159.664 145.856 161.736 144.549C162.189 144.263 162.597 143.905 163.024 143.531ZM157.567 141.784C157.502 140.98 157.613 140.245 158.199 139.642C158.35 139.526 158.478 139.443 158.59 139.369C158.699 139.298 158.793 139.237 158.879 139.165C159.893 138.32 160.544 138.376 161.553 139.195C162.149 139.68 162.86 140.056 163.573 140.352C164.12 140.58 164.176 140.891 163.839 141.215C163.625 141.421 163.413 141.632 163.201 141.845L163.201 141.845L163.2 141.845C162.452 142.593 161.698 143.348 160.811 143.863C159.46 144.648 157.696 143.396 157.567 141.784ZM96.2286 143.306L96.3834 143.168C97.2511 142.398 98.0834 141.659 99.0142 141.078C100.048 140.433 101.223 140.709 102.132 141.56C103.53 142.868 104.457 142.716 105.369 141.6C105.457 141.492 105.554 141.386 105.666 141.305C105.787 141.218 105.907 141.122 106.028 141.025C106.57 140.592 107.127 140.146 107.871 140.432C108.788 140.785 109.157 141.618 109.447 142.567C110.106 144.729 108.765 146.565 107.086 147.523C105.156 148.623 103.078 149.052 100.945 149.371C99.4137 149.6 96.4624 148.269 95.7984 147.185C94.9414 145.786 95.4642 144.597 96.2286 143.306ZM105.231 147.179C105.321 147.134 105.41 147.09 105.5 147.045C107.079 146.264 108.649 145.488 108.383 143.218C108.369 143.098 108.362 142.972 108.356 142.847C108.325 142.276 108.295 141.7 107.579 141.627C107.124 141.581 106.524 141.962 106.147 142.318C104.586 143.791 103.29 143.93 101.653 142.386C101.154 141.915 100.594 141.427 99.6446 141.803C97.9913 142.457 97.2561 143.819 96.6919 145.275C96.4345 145.938 96.501 146.871 97.496 147.184C97.7913 147.277 98.0879 147.388 98.3851 147.5C99.1445 147.785 99.9075 148.071 100.662 148.057C101.856 148.035 103.044 147.732 104.287 147.415C104.598 147.336 104.912 147.256 105.231 147.179ZM140.271 200.782L140.227 200.873C139.548 202.272 138.891 203.624 137.365 204.22C135.776 204.84 133.21 205.044 131.962 203.458C131.222 202.518 131.173 201.269 132.002 200.377C132.265 200.095 132.543 199.821 132.822 199.547C133.528 198.851 134.236 198.154 134.688 197.32C135.121 196.523 135.315 195.597 135.508 194.669C135.597 194.241 135.687 193.814 135.799 193.398C136.158 192.077 136.534 190.738 137.832 190.004C138.767 189.476 139.511 189.819 140.21 190.671C141.478 192.217 141.357 193.965 141.237 195.695L141.237 195.695C141.206 196.143 141.175 196.59 141.169 197.033C141.156 197.894 140.898 198.752 140.635 199.63C140.537 199.956 140.438 200.285 140.351 200.618L140.271 200.782ZM137.263 193.866C137.241 193.998 137.221 194.131 137.2 194.264C136.975 195.687 136.749 197.123 135.783 198.269C135.05 199.138 134.223 199.943 133.354 200.677C132.533 201.369 132.392 202.185 133.131 202.923C134.431 204.222 137.585 203.631 138.503 201.854C139.049 200.798 139.513 199.686 139.879 198.555C140.558 196.463 140.138 194.418 139.366 192.434C139.25 192.133 138.921 191.74 138.665 191.72C138.425 191.702 138.09 192.08 137.906 192.357C137.64 192.755 137.472 193.22 137.263 193.866ZM137.404 150.18C136.444 149.49 135.531 149.479 134.546 149.705C132.933 150.074 131.19 151.954 131.19 153.877C131.19 155.814 132.051 157.231 133.64 158.145C135.172 159.027 136.786 159.642 138.687 159.468C140.914 159.264 142.596 158.392 143.507 156.357C143.696 155.934 143.678 155.417 143.661 154.901C143.652 154.664 143.644 154.428 143.656 154.2C143.46 154.201 143.259 154.186 143.057 154.171C142.603 154.138 142.15 154.105 141.763 154.25C141.044 154.521 140.659 154.272 140.417 153.735C139.749 152.251 138.737 151.138 137.404 150.18ZM134.022 151.28C134.95 150.843 136.659 150.357 137.673 151.28C138.687 152.203 139.071 153.068 139.326 153.66C139.941 155.087 140.806 155.556 142.266 155.163C142.404 155.126 142.552 155.126 142.699 155.126C142.768 155.126 142.836 155.126 142.904 155.122C142.883 155.19 142.864 155.258 142.846 155.327C142.806 155.474 142.765 155.622 142.704 155.76C141.262 159.028 136.624 158.54 134.456 157.161C133.134 156.319 132.382 155.222 132.446 153.622C132.491 152.513 133.068 151.73 134.022 151.28ZM143.491 177.169C143.245 177.378 143.011 177.599 142.781 177.817C142.261 178.309 141.759 178.783 141.166 179.064C139.868 179.676 138.484 179.361 137.222 178.74C135.092 177.693 133.778 176.1 133.91 173.579C134.004 171.784 135.076 170.736 136.525 169.872C137.746 169.144 138.939 168.991 140.216 169.606C141.171 170.065 141.434 170.956 141.693 171.835C141.745 172.011 141.797 172.187 141.854 172.358C141.929 172.581 141.949 172.823 141.969 173.065C141.991 173.328 142.013 173.59 142.104 173.826C142.237 174.168 142.559 174.591 142.88 174.68C144.458 175.118 144.616 175.505 143.621 176.837C143.595 176.873 143.581 176.918 143.566 176.973C143.549 177.03 143.53 177.095 143.491 177.169ZM141.45 177.326C141.496 177.303 141.543 177.282 141.59 177.261C141.692 177.216 141.794 177.17 141.877 177.102C142.875 176.288 142.871 176.285 141.912 175.454L141.862 175.41C141.581 175.167 141.354 174.782 141.258 174.42C141.159 174.048 141.091 173.664 141.023 173.281L141.023 173.281L141.023 173.281L141.023 173.281L141.023 173.281L141.023 173.281L141.023 173.281L141.023 173.281L141.023 173.281L141.023 173.28L141.023 173.28L141.023 173.28L141.023 173.28L141.023 173.28L141.023 173.28L141.023 173.28L141.023 173.28L141.023 173.28L141.022 173.28L141.022 173.28L141.022 173.28L141.022 173.28L141.022 173.28C140.912 172.659 140.802 172.04 140.562 171.475C140.348 170.974 139.658 170.465 139.108 170.361C137.982 170.149 135.499 172.156 135.399 173.304C135.265 174.85 135.729 176.167 137.165 177.033C138.512 177.846 139.854 178.315 141.45 177.326ZM83.9693 157.794C86.2778 156.312 87.7556 154.344 88.0636 151.471C88.0636 151.216 88.0723 150.97 88.0807 150.732V150.732C88.0987 150.221 88.1156 149.744 88.0434 149.28C87.8867 148.274 87.5554 147.296 86.1676 147.521C85.4887 147.631 84.7912 147.943 84.2198 148.335C83.0377 149.146 82.6386 150.488 82.2591 151.763L82.225 151.878C81.6629 153.763 80.7906 155.091 78.5556 155.089C78.1661 155.089 77.5325 155.821 77.4331 156.302C77.1623 157.611 78.4684 158.955 79.8725 159.009C81.3769 159.066 82.695 158.612 83.9693 157.794ZM80.9942 157.877C80.8726 157.903 80.7509 157.93 80.6313 157.961C79.6204 158.073 79.1384 157.544 78.6735 157.034L78.6734 157.034L78.6724 157.033L78.6718 157.033C78.6359 156.993 78.6 156.954 78.564 156.915C78.4893 156.834 78.529 156.505 78.622 156.438L78.6895 156.389C78.9828 156.175 79.3016 155.942 79.638 155.885C81.3383 155.596 82.279 154.606 82.8672 152.998C83.3623 151.644 84.1069 150.359 84.908 149.154C85.164 148.768 85.9651 148.584 86.494 148.623C86.7005 148.638 86.9837 149.515 86.9947 150.004C87.0815 153.871 84.9324 156.279 81.7602 157.659C81.5188 157.763 81.2565 157.82 80.9942 157.877ZM85.4989 167.12C85.9113 165.872 86.8086 165.073 87.6938 164.285L87.6938 164.285C88.0068 164.006 88.3184 163.729 88.6064 163.433C89.1777 162.847 90.494 163.615 90.7857 164.608C90.9075 165.023 91.0264 165.439 91.1452 165.855L91.1452 165.855L91.1452 165.855L91.1452 165.855L91.1452 165.855L91.1452 165.855L91.1452 165.855L91.1452 165.855L91.1452 165.855L91.1452 165.855C91.4446 166.903 91.744 167.951 92.0914 168.982C92.3928 169.877 92.2681 170.577 91.6269 171.277C91.1413 171.808 90.7022 172.414 90.3823 173.056C89.5958 174.635 88.4385 175.028 86.6827 173.654C84.3638 171.839 84.6723 169.559 85.4989 167.12ZM90.9946 169.371L90.6041 168.393L90.6037 168.392C90.2452 167.495 89.8867 166.598 89.5301 165.7C89.457 165.516 89.3901 165.329 89.3233 165.142C89.2925 165.056 89.2618 164.97 89.2304 164.885C89.1399 164.928 89.0464 164.967 88.9529 165.007C88.7502 165.091 88.5474 165.176 88.375 165.303C87.0965 166.24 86.4918 167.635 86.2239 169.092C86.0105 170.252 85.9595 171.575 86.881 172.535C87.3041 172.976 87.9788 173.239 88.5874 173.392C88.6805 173.416 88.847 173.126 89.0236 172.818C89.1238 172.643 89.2272 172.463 89.3223 172.331C89.4836 172.108 89.651 171.888 89.8183 171.668L89.8184 171.668C90.0933 171.307 90.3682 170.947 90.6158 170.568C90.7849 170.31 90.8567 169.988 90.9579 169.535C90.9697 169.482 90.9818 169.427 90.9946 169.371ZM114.585 163.291C112.477 162.493 110.376 162.975 110.256 165.707C110.383 166 110.501 166.292 110.617 166.581C110.946 167.399 111.262 168.185 111.749 168.844C113.507 171.223 115.731 171.938 118.204 170.947C119.777 170.317 119.784 168.878 118.731 167.975C117.742 167.126 116.89 166.171 116.366 164.886C116.091 164.213 115.295 163.56 114.585 163.291ZM116.684 169.912C115.547 170.12 114.403 170.328 113.501 169.266C112.38 168.164 111.606 167.045 111.506 165.56C111.466 164.963 111.702 164.638 112.261 164.416C113.045 164.104 114.851 164.485 115.025 165.26C115.272 166.358 115.922 167.154 116.573 167.95C116.83 168.264 117.087 168.579 117.319 168.912C117.454 169.106 117.598 169.458 117.512 169.6C117.407 169.773 117.071 169.843 116.822 169.887L116.684 169.912ZM109.418 191.249C109.46 190.995 109.485 190.739 109.509 190.49C109.567 189.908 109.62 189.36 109.878 188.935C110.545 187.835 110.389 186.888 109.842 185.87C109.788 185.77 109.759 185.657 109.73 185.544C109.701 185.435 109.673 185.327 109.623 185.229C109.178 184.365 109.387 183.518 110.163 183.157C110.709 182.903 111.621 182.983 112.172 183.281C113.963 184.247 114.776 185.962 115.052 187.895C115.293 189.584 114.914 191.226 114.227 192.776C113.34 194.775 111.55 194.52 110.408 193.335C110.05 192.963 109.857 192.431 109.653 191.868C109.579 191.664 109.504 191.455 109.418 191.249ZM112.661 185.376L112.66 185.376C112.402 185.107 112.143 184.838 111.857 184.603C111.735 184.504 111.561 184.471 111.386 184.437C111.306 184.422 111.227 184.407 111.152 184.385C111.135 184.469 111.104 184.559 111.073 184.65L111.073 184.65L111.073 184.65L111.073 184.65L111.073 184.65L111.073 184.65L111.073 184.65L111.073 184.65C111.006 184.846 110.939 185.043 111.007 185.162C111.758 186.488 111.587 187.709 110.8 188.957C110.634 189.22 110.573 189.549 110.512 189.879C110.482 190.042 110.452 190.206 110.409 190.361C110.175 191.21 110.798 192.819 111.592 193.064L111.66 193.085C112.083 193.218 112.654 193.397 112.99 192.69C114.073 190.416 114.433 188.168 112.977 185.701C112.871 185.594 112.766 185.485 112.661 185.376ZM174.604 163.994C175.951 164.586 178.215 164.388 179.92 162.514C180.045 162.321 180.17 162.133 180.294 161.947L180.295 161.946L180.295 161.945L180.296 161.945C180.683 161.361 181.052 160.804 181.365 160.217C182.148 158.747 180.791 156.483 179.115 156.517C178.639 156.526 178.164 156.617 177.69 156.707L177.69 156.707C177.248 156.791 176.806 156.876 176.362 156.895C175.016 156.953 173.948 157.431 173.197 158.561C171.897 160.514 172.386 163.019 174.604 163.994ZM176.738 158.383C176.804 158.381 176.87 158.379 176.937 158.379C177.094 158.353 177.245 158.335 177.386 158.318L177.386 158.318C177.77 158.272 178.081 158.234 178.256 158.06C178.83 157.49 179.329 157.754 179.77 158.101C180.248 158.477 180.513 158.938 180.283 159.671C179.741 161.4 178.763 162.674 176.974 163.134C175.972 163.392 175.034 163.144 174.34 162.276C173.712 161.493 173.616 160.662 174.079 159.774C174.547 158.875 175.202 158.268 176.309 158.377C176.451 158.39 176.594 158.387 176.738 158.383ZM150.819 160.839C152.14 159.966 153.398 159.911 154.598 160.901C154.937 161.181 155.236 161.541 155.463 161.919C155.563 162.085 155.623 162.281 155.682 162.475C155.758 162.726 155.833 162.973 155.992 163.149C156.701 163.932 156.258 164.633 155.678 164.92C154.214 165.644 152.669 166.235 151.107 166.722C150.285 166.978 149.188 166.007 148.988 165.078C148.55 163.04 149.376 161.696 150.819 160.839ZM154.43 163.718C154.329 163.58 154.228 163.441 154.128 163.301C153.884 162.963 153.64 162.624 153.377 162.301L153.354 162.273C153.177 162.055 152.95 161.776 152.723 161.752C151.02 161.566 149.561 163.534 150.255 165.072C150.46 165.525 150.879 166.01 151.376 165.479C152.064 164.745 152.914 164.595 153.812 164.437L153.873 164.426C154.122 164.382 154.316 164.032 154.43 163.718ZM147.284 206.682C147.249 206.851 147.212 207.028 147.155 207.212C147.164 207.348 147.201 207.469 147.235 207.584C147.269 207.697 147.301 207.803 147.304 207.91C147.363 210.496 150.741 212.494 152.849 212.189C154.322 211.975 155.129 211.439 155.341 210.083C155.529 208.875 155.233 207.555 154.288 206.784C153.198 205.896 151.884 205.227 150.577 204.678C149.025 204.026 148.045 204.548 147.437 206.105C147.366 206.285 147.326 206.478 147.284 206.682ZM148.83 206.219C148.923 206.045 149.015 205.871 149.092 205.695C149.28 205.739 149.467 205.782 149.653 205.824L149.654 205.825C151.4 206.222 153.021 206.591 153.799 208.329C154.168 209.153 154.589 210.142 153.576 210.783C153.088 211.093 152.342 211.189 151.752 211.107C150.283 210.902 148.195 209.319 148.388 207.377C148.427 206.981 148.629 206.6 148.83 206.219ZM149.825 180.571C151.528 180.731 152.88 181.484 153.16 183.28C153.26 183.916 153.662 184 154.104 184.093C154.168 184.107 154.233 184.12 154.298 184.136C155.277 184.37 156.054 185.176 155.9 186.447C155.789 187.369 155.315 187.745 153.995 187.67C153.112 187.621 152.185 187.527 151.371 187.212C148.737 186.192 147.982 184.024 148.167 181.73C148.237 180.869 148.873 180.518 149.825 180.571ZM153.698 185.177C152.568 185.249 152.029 184.572 151.941 183.586C151.848 182.545 151.102 182.212 150.368 181.884L150.283 181.847C149.758 181.611 149.14 182.223 149.226 182.8C149.549 184.954 152.002 186.825 154.202 186.656C155.014 186.594 154.911 186.175 154.618 185.748C154.522 185.608 154.347 185.522 154.139 185.42L154.139 185.42C154.002 185.353 153.85 185.279 153.698 185.177ZM128.679 221.187C128.705 220.911 128.706 220.631 128.708 220.358C128.712 219.755 128.715 219.186 128.972 218.775C129.599 217.775 130.355 216.855 131.111 215.935L131.111 215.935C131.419 215.56 131.726 215.185 132.025 214.805C132.54 214.151 133.338 213.773 133.988 214.126C134.65 214.485 135.291 215.216 135.543 215.926C136.142 217.612 135.387 219.062 134.257 220.3C133.937 220.651 133.573 220.962 133.21 221.273C132.924 221.519 132.637 221.764 132.371 222.03C130.895 223.502 129.579 222.816 128.679 221.187ZM132.343 220.768C133.851 219.777 134.825 218.49 134.761 216.578C134.738 215.91 134.488 215.465 133.882 215.182C133.246 214.886 132.812 215.285 132.616 215.716C132.121 216.803 131.415 217.731 130.706 218.661L130.706 218.661C130.461 218.983 130.216 219.305 129.98 219.634C129.739 219.969 129.887 220.777 130.131 221.216C130.414 221.728 130.982 221.642 131.461 221.249C131.578 221.153 131.719 221.087 131.882 221.01C132.021 220.945 132.175 220.873 132.343 220.768ZM123.629 208.684C124.281 207.171 124.38 205.547 124.021 203.863C123.991 203.833 123.968 203.812 123.95 203.795C123.922 203.768 123.906 203.754 123.896 203.736C123.172 202.448 122.416 201.872 121.566 202.154C120.49 202.51 120.089 203.315 120.051 204.484C120.023 205.317 119.693 206.052 118.573 206.379C116.91 206.864 117.03 208.355 118.056 209.161C118.447 209.469 118.946 209.647 119.439 209.823C119.594 209.879 119.749 209.934 119.899 209.993C120.843 210.363 123.163 209.764 123.629 208.684ZM122.897 204.545C122.939 204.615 122.981 204.686 123.027 204.753C123.027 205.128 123.051 205.489 123.074 205.835C123.123 206.558 123.167 207.216 122.975 207.795C122.484 209.281 119.563 209.545 118.631 208.259C118.532 208.122 118.809 207.449 119 207.405C120.544 207.045 121.117 206.045 121.17 204.553C121.182 204.229 121.493 203.842 121.777 203.64C121.884 203.565 122.334 203.902 122.576 204.112C122.708 204.227 122.803 204.386 122.897 204.545Z" fill="#FFB61D"/>
</svg>
