<svg width="300" height="300" viewBox="0 0 300 300" fill="none" xmlns="http://www.w3.org/2000/svg">
<rect width="300" height="300" fill="white"/>
<path fill-rule="evenodd" clip-rule="evenodd" d="M188.31 252.837C142.824 265.881 17.8619 232.283 17.957 155.315C18.1947 105.624 63.1079 93.1812 109.423 118.665C123.052 124.1 133.812 122.415 145.494 117.015C157.177 111.615 172.202 87.5062 200.52 82.5465C285.737 67.6211 358.652 203.988 188.31 252.837Z" fill="#64FCD9"/>
<path d="M83.1948 189.886L83.0469 190.161C82.4047 191.387 82.7523 188.001 84.1849 186.305C85.4418 184.817 86.7774 183.371 88.2348 182.083C89.5723 180.902 91.0672 179.873 92.5876 178.931C94.2307 177.912 95.9452 176.987 97.6992 176.174C99.6453 175.272 101.634 174.426 103.671 173.765C106.554 172.83 109.483 172.026 112.426 171.3C113.197 171.109 113.283 170.833 113.308 170.245L113.315 170.037C113.368 168.22 113.51 166.398 113.764 164.598C114.107 162.177 115.165 160.068 117.011 158.425C118.608 157.002 120.336 155.765 122.262 154.794C125.686 153.068 129.282 151.808 133.021 151.063C136.53 150.364 140.091 149.911 143.64 149.436C144.719 149.291 145.836 149.407 146.934 149.449C147.648 149.476 147.955 149.228 148.101 148.492L148.278 147.6C148.457 146.708 148.646 145.818 148.89 144.944C150.019 140.891 150.908 136.808 150.593 132.562C150.393 129.86 150.232 127.152 149.903 124.464C149.674 122.601 149.253 120.76 148.883 118.914L148.774 118.36C148.691 117.933 148.505 117.918 148.193 118.172L148.15 118.208C147.036 119.165 145.503 118.719 145.097 117.275C144.853 116.405 144.733 115.436 145.42 114.698C145.751 114.343 146.305 114.017 146.771 113.998C148.623 113.925 150.488 113.875 152.335 114.01C154.82 114.192 157.296 114.526 159.77 114.845C162.084 115.143 164.396 115.467 166.697 115.857C168.018 116.08 169.312 116.464 170.622 116.761C171.753 117.017 172.885 117.274 174.027 117.468C174.175 117.493 174.504 117.173 174.549 116.97C174.838 115.636 175.085 114.293 175.358 112.956L175.569 111.954C175.638 111.64 175.621 111.072 176.25 111.23C176.811 111.37 176.95 111.683 176.801 112.275C176.484 113.538 176.226 114.816 175.954 116.091L175.789 116.855C175.598 117.724 175.897 118.065 177.027 118.275L177.126 118.293C177.701 118.392 178.275 118.502 178.843 118.636L179.268 118.741C179.678 118.847 179.842 118.785 179.917 118.371L179.927 118.309C180.096 117.171 180.329 116.042 180.546 114.911C180.683 114.195 180.856 113.485 180.981 112.766C181.079 112.206 180.569 111.782 179.703 111.638C179.061 111.53 178.394 111.479 177.788 111.264C175.919 110.602 173.95 110.482 172.028 110.411C167.638 110.248 164.839 110.297 160.444 110.331C158.935 110.342 157.43 110.592 155.919 110.68C155.175 110.724 153.301 110.328 153.64 109.691C153.912 109.18 155.952 108.76 156.3 108.288C156.941 107.418 157.663 106.59 158.177 105.65C158.745 104.608 159.251 103.493 159.545 102.348C160.082 100.256 160.448 98.12 160.874 95.9999C161.136 94.6974 161.478 93.4001 161.6 92.0833C161.734 90.6288 161.71 89.1525 161.643 87.6908C161.624 87.2584 161.365 86.7755 160.763 86.6155C159.948 86.399 159.844 85.835 159.854 84.5614C159.858 84.044 160.569 83.4834 161.217 83.4287C164.285 83.17 159.342 83.3576 162.383 83.7434C164.8 84.05 173.603 84.4708 176.011 84.8474C176.164 84.8714 176.307 84.957 176.458 85.0051C177.087 85.2055 179.331 85.5887 179.848 85.7182L179.903 85.7327C181.094 86.0656 182.319 86.2725 183.52 86.5705C185.623 87.0922 187.719 87.6436 189.817 88.1839C189.894 88.2036 189.966 88.2382 190.041 88.2641C192.991 89.2816 195.958 90.2521 198.881 91.3401C200.006 91.7588 201.089 92.3616 202.078 93.0451C202.555 93.3753 202.778 94.0813 203.101 94.6258C203.896 95.9632 204.783 97.2578 205.45 98.6566C206.534 100.929 206.939 103.315 206.451 105.859L206.265 106.819C205.847 108.948 205.369 111.057 204.464 113.034C203.712 114.677 202.872 116.303 201.867 117.799C201.119 118.914 199.901 119.467 198.455 118.814C196.64 117.994 194.801 117.227 192.959 116.47C190.19 115.331 187.413 114.209 184.63 113.107C184.133 112.911 183.605 112.784 183.078 112.676L182.852 112.631C182.523 112.566 182.249 112.528 182.155 113.104C181.854 114.965 181.442 116.81 181.021 118.649C180.911 119.127 181.099 119.269 181.469 119.361C181.861 119.457 182.271 119.497 182.649 119.631L186.765 121.084C195.83 124.302 213.215 130.63 216.016 133.299C220.042 137.138 223.692 161.787 213.863 173.765C207.871 181.067 207.514 178.229 207.215 178.292C222.108 170.769 193.645 148.531 195.368 148.825C198.458 149.354 199.827 151.552 200.614 154.141C201.596 157.371 202.376 160.676 203.035 163.989C203.725 167.453 205.575 178.613 205.902 180.707C206.143 182.248 206.182 183.82 206.375 185.371C206.631 187.413 207.054 189.44 207.213 191.488C207.388 193.753 207.49 196.035 207.437 198.305L207.42 198.872C207.369 200.309 206.919 204.211 204.779 210.242C202.768 215.909 195.008 225.768 193.116 229.115C192.994 229.331 191.735 230.134 191.412 229.531C191.198 229.132 100.384 245.665 83.1948 189.886Z" fill="white"/>
<path fill-rule="evenodd" clip-rule="evenodd" d="M183.843 72.4901C183.111 72.2286 182.306 72.6099 182.044 73.3417C182.013 73.4283 181.991 73.5178 181.977 73.6088L180.407 84.2006L180.402 84.2471C180.396 84.4473 180.541 84.6248 180.744 84.6549C180.962 84.6873 182.405 73.2928 182.405 73.2928L182.417 73.2344C182.417 73.2344 183.053 72.7103 183.608 72.845C184.09 72.9618 184.588 73.6537 184.488 74.1494C184.488 74.1494 182.447 84.2413 182.19 86.2684C182.128 86.2549 182.065 86.2414 182.002 86.2279L182.002 86.2279C181.298 86.077 180.595 85.9261 179.903 85.7327L179.848 85.7182C179.651 85.6689 179.204 85.5828 178.691 85.4841L178.691 85.4841L178.691 85.484C177.856 85.3234 176.848 85.1292 176.458 85.0051C176.4 84.9867 176.344 84.9628 176.287 84.939C176.196 84.9006 176.105 84.8622 176.011 84.8474C175.34 84.7425 174.67 84.6342 174 84.5259L174 84.5258L173.999 84.5258L173.999 84.5257L173.999 84.5257L173.998 84.5256L173.998 84.5256L173.998 84.5255L173.997 84.5255C172.262 84.245 170.526 83.9645 168.783 83.7434C165.742 83.3576 162.685 83.17 159.617 83.4287C158.969 83.4834 158.258 84.044 158.254 84.5614C158.244 85.835 158.348 86.399 159.163 86.6155C159.765 86.7755 160.024 87.2584 160.043 87.6908C160.11 89.1525 160.134 90.6288 160 92.0833C159.91 93.0496 159.702 94.0054 159.494 94.9605L159.494 94.9607C159.419 95.3071 159.344 95.6533 159.274 95.9999C159.163 96.5515 159.056 97.1041 158.95 97.6568C158.646 99.2285 158.342 100.801 157.945 102.348C157.651 103.493 157.145 104.608 156.577 105.65C156.207 106.328 155.728 106.947 155.249 107.566L155.249 107.566L155.249 107.566C155.064 107.806 154.879 108.045 154.7 108.288C154.575 108.457 154.439 108.619 154.303 108.781L154.303 108.781C154.059 109.072 153.815 109.363 153.64 109.691C153.301 110.328 153.575 110.724 154.319 110.68C154.931 110.645 155.541 110.582 156.152 110.52C157.049 110.429 157.946 110.337 158.844 110.331L159.693 110.324C163.805 110.291 167.921 110.259 172.028 110.411C173.95 110.482 175.919 110.602 177.788 111.264C178.239 111.424 178.723 111.493 179.206 111.562C179.372 111.586 179.538 111.61 179.703 111.638C180.569 111.782 181.079 112.206 180.981 112.766C180.909 113.179 180.822 113.589 180.734 113.999L180.734 114L180.734 114.001C180.669 114.304 180.604 114.607 180.546 114.911C180.504 115.129 180.462 115.346 180.419 115.564C180.241 116.477 180.064 117.39 179.927 118.309L179.917 118.371C179.842 118.785 179.678 118.847 179.268 118.741L178.843 118.636C178.275 118.502 177.701 118.392 177.126 118.293L177.027 118.275C175.897 118.065 175.598 117.724 175.789 116.855L175.954 116.091C176.003 115.86 176.052 115.628 176.101 115.397L176.101 115.395L176.101 115.395L176.101 115.395L176.101 115.395L176.102 115.394L176.102 115.394L176.102 115.394C176.322 114.351 176.541 113.308 176.801 112.275C176.95 111.683 176.811 111.37 176.25 111.23C175.71 111.095 175.646 111.494 175.595 111.808C175.587 111.86 175.579 111.909 175.569 111.954L175.358 112.956C175.254 113.468 175.153 113.98 175.052 114.493V114.493C174.89 115.32 174.727 116.147 174.549 116.97C174.504 117.173 174.175 117.493 174.027 117.468C172.892 117.275 171.768 117.02 170.645 116.766L170.644 116.766L170.622 116.761C170.159 116.656 169.698 116.54 169.237 116.424C168.394 116.213 167.551 116.001 166.697 115.857C164.396 115.467 162.084 115.143 159.77 114.845L159.123 114.761C156.864 114.469 154.603 114.176 152.335 114.01C150.488 113.875 148.623 113.925 146.771 113.998C146.305 114.017 145.751 114.343 145.42 114.698C144.733 115.436 144.853 116.405 145.097 117.275C145.503 118.719 147.036 119.165 148.15 118.208L148.193 118.172C148.505 117.918 148.691 117.933 148.774 118.36L148.883 118.914C148.96 119.296 149.039 119.678 149.117 120.059L149.117 120.059L149.117 120.06L149.117 120.06L149.117 120.06L149.117 120.06L149.117 120.06L149.117 120.06C149.419 121.523 149.721 122.986 149.903 124.464C150.17 126.641 150.326 128.832 150.482 131.022C150.519 131.535 150.555 132.049 150.593 132.562C150.908 136.808 150.019 140.891 148.89 144.944C148.646 145.818 148.457 146.708 148.278 147.6L148.101 148.492C147.955 149.228 147.648 149.476 146.934 149.449C146.693 149.44 146.452 149.427 146.21 149.414L146.21 149.414L146.209 149.414L146.209 149.414L146.209 149.414L146.208 149.414L146.208 149.414C145.347 149.368 144.482 149.323 143.64 149.436C143.329 149.477 143.018 149.519 142.707 149.56L142.7 149.561L142.699 149.561H142.699C139.462 149.993 136.22 150.425 133.021 151.063C129.282 151.808 125.686 153.068 122.262 154.794C120.336 155.764 118.608 157.002 117.011 158.425C115.165 160.068 114.107 162.177 113.764 164.598C113.51 166.398 113.368 168.22 113.315 170.037L113.308 170.245C113.283 170.833 113.197 171.109 112.426 171.3C109.483 172.026 106.554 172.83 103.671 173.765C101.634 174.426 99.6453 175.272 97.6992 176.174C95.9452 176.987 94.2307 177.912 92.5876 178.931C91.0672 179.873 89.5723 180.902 88.2348 182.083C86.7774 183.37 85.4418 184.817 84.1849 186.305C83.7995 186.761 83.4926 187.34 83.2623 187.918C81.5472 188.22 79.8639 188.73 78.2768 189.416C73.0688 191.667 68.7747 195.618 65.1133 199.94C63.1038 202.312 61.2556 204.812 59.4072 207.312C57.8879 209.367 56.3684 211.422 54.759 213.407C51.1916 217.806 47.0926 221.921 42.0408 224.501C38.514 226.302 34.6387 227.297 30.8 228.279C38.4884 229.106 46.0531 225.594 52.1931 220.91C55.6823 218.249 58.8436 215.204 62.0064 212.158C64.409 209.845 66.8125 207.53 69.3612 205.382C70.3851 204.519 71.6522 203.629 72.9524 203.957C72.2771 207.443 72.1465 211.078 72.9962 214.526C73.8459 217.974 75.7301 221.229 78.5707 223.374C75.9621 220.243 74.2275 216.397 73.6101 212.375C73.2409 209.97 73.2749 207.455 74.1209 205.174C74.967 202.892 76.7031 200.867 78.9993 200.04C78.5205 204.028 78.3669 208.101 79.1854 212.033C80.0039 215.966 81.8623 219.772 84.9024 222.41C80.6559 217.099 78.7971 209.963 79.9158 203.266C80.0982 202.174 80.3701 201.062 81.0226 200.165C81.6751 199.269 82.7874 198.63 83.8824 198.819C80.7311 205.642 83.099 214.538 89.23 218.909C85.4304 215.14 83.2175 209.763 83.5375 204.43C83.641 202.705 84.0339 200.921 85.1396 199.589C86.2453 198.258 88.2092 197.523 89.7859 198.243C87.5712 201.081 87.4467 205.012 87.9359 208.574C88.3667 211.711 89.6585 215.294 92.715 216.161C88.8269 212.971 87.531 207.029 89.7395 202.519C90.5347 200.895 92.016 199.332 93.8269 199.435C95.1096 199.507 96.2016 200.412 96.9706 201.437C97.332 201.919 97.6442 202.435 97.9564 202.951L97.9565 202.951C98.3085 203.532 98.6604 204.114 99.0826 204.646C100.891 200.716 101.019 195.734 98.3215 192.347C97.3614 191.141 96.0992 190.198 94.7365 189.473C92.9391 188.517 90.9825 187.95 88.9716 187.72C89.0673 187.648 89.1635 187.577 89.2597 187.505C92.3163 185.241 95.6878 183.502 99.0849 181.835C101.079 180.857 103.177 180.077 105.266 179.312C107.139 178.626 109.047 178.022 110.969 177.492C114.417 176.542 117.94 176.009 121.508 175.745C122.261 175.689 123.013 175.601 123.764 175.513C124.566 175.419 125.369 175.325 126.174 175.27C127.265 175.196 128.357 175.146 129.45 175.096L129.451 175.096L129.452 175.096L129.452 175.096L129.453 175.096L129.454 175.096L129.455 175.096L129.456 175.096C131.14 175.02 132.823 174.943 134.498 174.777C136.368 174.591 138.225 174.28 140.081 173.97C140.718 173.863 141.355 173.756 141.993 173.655C143.399 173.431 144.799 173.174 146.239 172.91L146.241 172.909L146.696 172.826C146.868 172.797 147.032 172.778 147.191 172.759C147.416 172.733 147.629 172.708 147.837 172.659C148.377 172.531 148.916 172.404 149.456 172.278C151.601 171.774 153.746 171.27 155.88 170.725C158.303 170.106 160.715 169.44 163.116 168.743C164.082 168.463 165.041 168.157 166 167.851L166.001 167.851L166.001 167.851L166.002 167.851L166.002 167.851L166.002 167.851L166.003 167.851L166.003 167.85C167.158 167.482 168.313 167.114 169.48 166.79C171.685 166.178 173.561 164.976 175.414 163.714C175.542 163.626 175.678 163.371 175.636 163.256C175.568 163.066 175.375 162.817 175.204 162.79C174.937 162.749 174.573 162.783 174.372 162.941C172.174 164.664 169.612 165.65 166.991 166.424C162.531 167.74 158.047 168.989 153.532 170.102C150.696 170.801 147.825 171.361 144.955 171.921L144.953 171.921C144.161 172.076 143.37 172.23 142.579 172.388C141.178 172.666 139.761 172.869 138.347 173.072L138.144 173.101C137.674 173.168 137.205 173.239 136.736 173.31L136.734 173.31L136.734 173.31C135.217 173.539 133.699 173.767 132.173 173.883C130.668 173.998 129.159 174.065 127.651 174.132L127.65 174.132H127.65C125.771 174.216 123.893 174.299 122.022 174.474C118.182 174.832 114.327 175.254 110.612 176.358C107.646 177.239 104.674 178.162 101.819 179.344C99.467 180.317 97.1999 181.502 94.9364 182.685L94.9363 182.685L94.9352 182.686C94.4627 182.933 93.9904 183.18 93.5176 183.425C91.2631 184.592 89.123 185.956 87.1882 187.603C86.333 187.588 85.4737 187.629 84.6181 187.724C85.4068 186.688 86.2869 185.722 87.1833 184.773L87.6097 184.324C90.22 181.584 93.4215 179.676 96.7535 177.991L97.3606 177.687C98.5111 177.117 99.7064 176.637 100.902 176.157C101.494 175.919 102.086 175.682 102.673 175.433L103.099 175.256C106.369 173.921 109.783 173.101 113.228 172.342C117.387 171.425 121.587 170.788 125.796 170.196L128.502 169.819C129.804 169.639 131.112 169.492 132.419 169.346H132.419L132.419 169.346L132.419 169.346C135.576 168.992 138.732 168.638 141.818 167.808C143.098 167.464 144.382 167.128 145.665 166.793L145.665 166.793L145.666 166.792L145.667 166.792L145.668 166.792L145.669 166.792L145.669 166.792L145.67 166.791C147.235 166.382 148.799 165.973 150.359 165.548C151.864 165.138 153.367 164.708 154.838 164.193C155.995 163.789 157.134 163.333 158.273 162.877L158.274 162.876L158.275 162.876L158.276 162.875L158.277 162.875L158.278 162.875L158.279 162.874L158.28 162.874C158.766 162.679 159.252 162.485 159.74 162.294C160.581 161.965 161.426 161.645 162.27 161.324C164.174 160.602 166.077 159.879 167.94 159.063C170.363 158 172.757 156.871 175.151 155.741L175.151 155.741L175.151 155.741L175.152 155.741L175.152 155.741L175.152 155.741L175.152 155.741L175.152 155.741C176.387 155.158 177.622 154.575 178.862 154.001C179.614 153.653 180.38 153.319 181.165 153.055C182.796 152.504 184.434 151.972 186.071 151.441L186.073 151.44C186.795 151.206 187.517 150.971 188.238 150.735L188.676 150.592C190.211 150.096 191.765 149.646 193.392 149.71C195.069 149.775 196.713 149.969 197.909 151.455C198.905 152.693 199.426 154.124 199.848 155.589L199.961 155.99C200.489 157.899 200.897 159.844 201.292 161.787L201.722 163.897C202.221 166.36 202.709 168.825 203.119 171.303C203.307 172.442 203.416 173.594 203.526 174.746C203.622 175.761 203.719 176.777 203.869 177.784C203.969 178.455 204.158 179.112 204.346 179.769C204.509 180.338 204.672 180.906 204.779 181.485C204.897 182.127 204.942 182.783 204.987 183.439C205.017 183.881 205.047 184.324 205.1 184.763C205.193 185.537 205.301 186.31 205.409 187.082L205.409 187.083C205.578 188.299 205.748 189.515 205.86 190.737L205.892 191.077C206.136 193.713 206.377 196.325 206.008 199.02C205.742 200.966 205.307 202.858 204.871 204.751C204.717 205.421 204.563 206.091 204.417 206.764C204.395 206.861 204.327 206.949 204.258 207.036C204.227 207.077 204.195 207.117 204.168 207.159C204.164 207.105 204.156 207.051 204.148 206.996L204.148 206.995C204.132 206.878 204.115 206.76 204.134 206.649C204.619 203.794 204.231 200.986 203.44 198.264C202.987 196.703 202.387 195.185 201.788 193.667L201.788 193.667C201.51 192.963 201.232 192.259 200.969 191.552C200.714 190.864 200.456 190.178 200.198 189.491C199.493 187.611 198.788 185.731 198.123 183.836C197.184 181.159 196.74 178.385 196.854 175.546L196.857 175.469C196.91 174.048 196.925 170.763 196.632 170.768C196.411 170.773 196.038 171.095 196.006 171.315C195.844 172.41 195.733 173.516 195.676 174.621C195.524 177.57 195.823 180.45 196.716 183.298L196.82 183.629L196.82 183.629C197.757 186.621 198.692 189.606 200.05 192.498C200.078 192.573 200.105 192.646 200.132 192.718L200.505 193.737C200.676 194.202 200.854 194.663 201.032 195.125C201.752 196.994 202.471 198.861 202.756 200.887C203.11 203.401 203.341 205.873 202.682 208.37C202.599 208.686 202.639 209.034 202.68 209.382C202.7 209.556 202.72 209.73 202.725 209.9L202.728 209.983L202.731 210.02L202.733 210.056C202.745 210.231 202.757 210.41 202.695 210.556C202.073 212.019 193.192 225.88 191.693 227.958L191.554 228.149C191.391 228.379 191.301 228.575 191.262 228.751C188.599 230.046 185.697 230.789 182.822 231.523C188.842 232.169 194.766 229.425 199.574 225.765C202.306 223.686 204.782 221.307 207.258 218.927C209.14 217.119 211.022 215.311 213.018 213.633C213.819 212.958 214.812 212.263 215.83 212.52C215.301 215.243 215.199 218.083 215.864 220.777C216.529 223.471 218.005 226.015 220.229 227.69C218.187 225.244 216.828 222.239 216.345 219.097C216.056 217.218 216.082 215.253 216.745 213.47C217.407 211.687 218.767 210.105 220.565 209.459C220.19 212.575 220.07 215.757 220.711 218.83C221.352 221.902 222.807 224.876 225.187 226.937C221.862 222.788 220.407 217.212 221.283 211.979C221.425 211.126 221.638 210.257 222.149 209.557C222.66 208.857 223.531 208.358 224.389 208.505C221.921 213.836 223.775 220.787 228.576 224.202C225.601 221.257 223.868 217.055 224.119 212.889C224.2 211.541 224.507 210.147 225.373 209.107C226.239 208.066 227.777 207.492 229.011 208.055C227.277 210.273 227.18 213.344 227.563 216.127C227.9 218.578 228.912 221.377 231.305 222.055C228.261 219.562 227.246 214.92 228.975 211.396C229.598 210.127 230.758 208.906 232.176 208.986C233.18 209.043 234.035 209.749 234.638 210.55C234.921 210.927 235.165 211.33 235.41 211.733C235.685 212.188 235.961 212.642 236.291 213.058C237.707 209.987 237.808 206.095 235.695 203.448C234.944 202.506 233.955 201.769 232.888 201.202C228.967 199.121 224.077 199.4 219.999 201.158C215.921 202.917 212.558 206.004 209.691 209.381C208.118 211.234 206.67 213.187 205.223 215.141C204.033 216.746 202.843 218.352 201.583 219.903C199.542 222.414 197.279 224.806 194.666 226.699C195.173 225.952 195.754 225.116 196.376 224.221L196.377 224.218C199.406 219.858 203.415 214.085 204.779 210.242C206.919 204.21 207.369 200.309 207.42 198.872L207.437 198.305C207.49 196.035 207.388 193.753 207.213 191.488C207.116 190.237 206.92 188.994 206.725 187.751C206.6 186.959 206.475 186.166 206.375 185.371C206.291 184.699 206.237 184.023 206.182 183.347C206.11 182.463 206.039 181.58 205.902 180.707C205.726 179.583 205.502 178.467 205.278 177.351L205.278 177.351L205.278 177.351L205.278 177.351L205.278 177.351L205.278 177.35L205.278 177.35L205.278 177.35L205.278 177.35L205.278 177.349L205.278 177.349L205.278 177.349L205.278 177.349L205.278 177.348L205.278 177.348C205.085 176.386 204.891 175.424 204.729 174.456C204.508 173.136 204.31 171.812 204.113 170.487L204.113 170.487L204.112 170.487L204.112 170.486L204.112 170.486L204.112 170.485L204.112 170.485L204.112 170.484C203.788 168.312 203.464 166.141 203.036 163.989C202.376 160.676 201.596 157.371 200.614 154.141C199.827 151.552 198.458 149.354 195.368 148.825C193.645 148.531 191.971 148.504 190.314 148.92C186.172 149.96 182.1 151.27 178.196 152.983C176.158 153.876 174.141 154.815 172.124 155.754C168.043 157.653 163.963 159.552 159.716 161.076C158.928 161.358 158.149 161.663 157.369 161.967L157.369 161.967L157.368 161.967L157.368 161.967L157.368 161.967L157.368 161.967L157.368 161.967L157.368 161.968L157.367 161.968C156.638 162.253 155.908 162.537 155.172 162.804C154.739 162.961 154.223 163.129 153.801 163.036C153.045 162.871 152.296 162.668 151.547 162.464C150.669 162.226 149.792 161.988 148.902 161.81C147.812 161.593 146.703 161.469 145.595 161.346L145.595 161.346C145.176 161.299 144.757 161.252 144.338 161.2C144.195 161.183 144.047 161.195 143.899 161.208C143.831 161.213 143.762 161.219 143.694 161.222C143.72 161.147 143.74 161.069 143.76 160.99L143.761 160.989C143.804 160.819 143.847 160.649 143.947 160.524C145.466 158.618 146.483 156.432 147.451 154.231L147.703 153.657C148.131 152.677 148.436 151.643 148.741 150.61C148.857 150.216 148.973 149.822 149.096 149.431C149.288 148.821 149.456 148.202 149.602 147.579C149.731 147.029 149.858 146.478 149.984 145.928L150.736 142.623C150.831 142.21 150.939 141.799 151.047 141.388L151.047 141.388L151.047 141.388L151.047 141.387L151.047 141.387L151.047 141.387L151.047 141.387L151.047 141.387C151.275 140.52 151.503 139.654 151.606 138.773C152.003 135.363 151.964 131.933 151.634 128.523C151.288 124.953 150.917 121.371 149.907 117.913L149.887 117.841C149.74 117.268 149.992 117.199 150.391 117.155L150.593 117.134C152.166 116.878 160.475 116.432 185.711 123.265C205.313 128.944 211.296 131.656 214.235 134.695C220.897 143.243 222.108 170.769 207.215 178.292C207.259 178.283 207.303 178.335 207.366 178.408C207.736 178.839 208.74 180.009 213.863 173.765C223.693 161.787 220.042 137.138 216.016 133.299C213.215 130.63 195.83 124.302 186.765 121.084L182.649 119.631C182.414 119.548 182.166 119.501 181.917 119.454C181.767 119.425 181.617 119.397 181.469 119.361C181.099 119.269 180.911 119.127 181.021 118.649C181.442 116.81 181.854 114.965 182.155 113.104C182.249 112.528 182.523 112.566 182.852 112.631L183.078 112.676C183.605 112.784 184.133 112.911 184.63 113.107C187.413 114.209 190.19 115.331 192.959 116.47C194.801 117.227 196.64 117.994 198.455 118.814C199.901 119.467 201.119 118.914 201.867 117.799C202.872 116.303 203.712 114.677 204.464 113.034C205.369 111.057 205.847 108.948 206.265 106.819L206.451 105.859C206.939 103.315 206.534 100.929 205.45 98.6566C204.978 97.6686 204.398 96.7325 203.817 95.7966L203.817 95.7958L203.816 95.7951L203.816 95.7945C203.575 95.4062 203.334 95.0178 203.101 94.6258C203.007 94.4674 202.922 94.2953 202.836 94.1228C202.627 93.7023 202.416 93.2792 202.078 93.0451C201.089 92.3616 200.006 91.7588 198.881 91.3401C196.795 90.5636 194.686 89.8469 192.577 89.1302L192.577 89.1302L192.577 89.1301L192.577 89.1301L192.576 89.13L192.576 89.13L192.576 89.1299L192.576 89.1298C191.73 88.8425 190.885 88.5552 190.041 88.2641C190.031 88.2608 190.022 88.2573 190.012 88.2538C189.994 88.247 189.976 88.2399 189.958 88.2328C189.912 88.2145 189.865 88.1963 189.817 88.1839C189.246 88.0367 188.674 87.8887 188.103 87.7407L188.102 87.7406C186.576 87.3453 185.05 86.95 183.52 86.5705C183.225 86.4972 182.928 86.4295 182.631 86.364C182.637 86.3458 182.643 86.3268 182.647 86.3073L185.013 74.5612L185.028 74.4755C185.159 73.6197 184.666 72.7842 183.843 72.4901ZM82.9582 190.311C82.8594 190.453 82.7935 190.453 82.7611 190.349C78.2334 191.243 74.0924 193.712 70.6415 196.78C66.8544 200.147 63.7976 204.227 60.7649 208.275L60.7365 208.313C57.6946 212.373 54.6179 216.461 50.8 219.817C50.9373 220.142 51.4332 219.977 51.7148 219.761C54.9661 217.276 57.8612 214.388 60.7582 211.498L60.7584 211.498C62.6944 209.566 64.6312 207.634 66.6757 205.821C71.7797 201.294 77.9041 197.393 84.7395 196.919C86.8604 196.772 88.9908 196.96 91.0995 197.228C92.3712 197.39 93.6541 197.586 94.838 198.073C96.6679 198.826 98.1902 200.286 99.0093 202.073C99.4883 200.831 99.7593 199.471 99.499 198.166C99.2723 197.03 98.6561 196.002 97.9216 195.101C95.271 191.849 91.0491 190.149 86.8027 190.009C86.7541 190.102 86.7082 190.198 86.6654 190.297C86.598 190.452 86.3956 190.548 86.1932 190.645C86.0998 190.689 86.0063 190.734 85.9262 190.784C85.8932 190.658 85.8412 190.523 85.7891 190.388C85.7394 190.26 85.6897 190.131 85.6565 190.01C85.1494 190.027 84.6439 190.066 84.1427 190.127C83.7451 190.176 83.3503 190.238 82.9582 190.311ZM146.51 118.063C147.31 118.355 147.95 117.466 148.242 116.665C148.533 115.864 148.005 114.883 147.205 114.591C146.404 114.3 145.703 114.905 145.411 115.705C145.12 116.506 145.709 117.772 146.51 118.063ZM155.527 109.146C155.46 109.219 155.415 109.311 155.37 109.404C155.349 109.446 155.328 109.489 155.306 109.529C155.348 109.531 155.392 109.535 155.435 109.538C155.529 109.546 155.624 109.554 155.716 109.543C155.864 109.524 156.012 109.498 156.159 109.471C156.375 109.433 156.59 109.395 156.808 109.38C161.292 109.07 165.775 108.942 170.272 109.164C173.106 109.303 175.915 109.603 178.658 110.278C181.235 110.912 183.776 111.713 186.299 112.545C187.698 113.007 189.061 113.581 190.422 114.154L190.423 114.155L190.429 114.157L190.429 114.157L190.429 114.158L190.43 114.158C190.702 114.272 190.974 114.387 191.246 114.5C192.718 115.115 194.176 115.767 195.627 116.432C196.239 116.713 196.835 117.031 197.431 117.349L197.432 117.35C197.572 117.425 197.712 117.499 197.852 117.574C199.022 118.193 200.357 118.001 200.993 116.962C201.792 115.655 202.538 114.301 203.167 112.905C204.271 110.456 204.882 107.851 205.313 105.205C205.534 103.849 205.546 102.477 205.033 101.198C204.428 99.6897 203.724 98.2154 202.969 96.7761C202.593 96.0604 202.108 95.3271 201.487 94.8365C200.945 94.4081 200.244 94.1554 199.561 93.9234L199.247 93.8173C195.54 92.5559 191.826 91.3114 188.103 90.0971C186.762 89.6598 185.4 89.2698 184.026 88.954C181.894 88.464 179.749 88.0246 177.599 87.6226C175.641 87.2564 173.674 86.9187 171.699 86.6587C169.279 86.3399 166.848 86.0927 164.417 85.86C163.554 85.7774 162.683 85.7735 161.814 85.7696L161.674 85.7689L161.412 85.7674L161.356 85.7653L161.342 85.7644L161.316 85.7624L161.278 85.7593C161.028 85.7384 160.716 85.7123 160.853 86.1561L160.873 86.2154C161.695 88.4745 161.458 90.7951 161.152 93.0815C160.983 94.3474 160.716 95.5996 160.448 96.8523L160.448 96.8527L160.447 96.8538L160.447 96.8548C160.319 97.4554 160.19 98.056 160.073 98.6583L159.967 99.2167C159.534 101.596 158.828 103.886 157.79 106.065C157.607 106.447 157.372 106.804 157.117 107.189L157.117 107.189L157.117 107.189C156.944 107.451 156.763 107.725 156.584 108.03L155.875 108.77C155.758 108.894 155.641 109.019 155.527 109.146ZM147.178 151.453C147.451 150.759 147.253 150.467 146.51 150.472C146.309 150.473 146.108 150.473 145.907 150.473C145.033 150.474 144.157 150.474 143.294 150.579C142.33 150.697 141.372 150.858 140.413 151.019L140.413 151.019C139.604 151.155 138.795 151.291 137.983 151.401C134.241 151.906 130.573 152.698 127.043 154.062L126.507 154.271C123.215 155.573 120.083 157.116 117.513 159.697C116.108 161.109 115.326 162.788 114.973 164.613C114.752 165.752 114.698 166.921 114.645 168.093C114.611 168.84 114.576 169.588 114.499 170.33C114.439 170.897 114.66 170.851 114.941 170.792C114.967 170.787 114.995 170.781 115.023 170.776L115.058 170.769C115.989 170.608 116.919 170.444 117.849 170.28L117.85 170.28C119.777 169.939 121.704 169.598 123.636 169.289C124.93 169.081 126.231 168.919 127.533 168.764L129.096 168.578C129.129 168.574 129.162 168.571 129.192 168.568C129.419 168.546 129.555 168.532 129.42 168.23L129.396 168.181C128.592 166.55 128.822 164.856 129.275 163.217C129.678 161.762 130.235 160.343 130.821 158.95C131.303 157.802 131.967 156.692 133.091 156.088C134.661 155.244 136.277 154.456 137.943 153.825C140.193 152.973 142.588 152.742 144.968 152.512L145.347 152.476C145.547 152.456 145.765 152.621 145.983 152.785L145.983 152.785C146.084 152.861 146.185 152.938 146.285 152.996C146.212 153.054 146.14 153.114 146.068 153.175C145.894 153.322 145.719 153.469 145.525 153.584C145.44 153.635 145.324 153.632 145.207 153.629H145.206C145.144 153.628 145.08 153.626 145.021 153.633L144.416 153.704C141.193 154.096 138.018 154.686 135.111 156.249C134.395 156.633 133.619 157.085 133.151 157.714C132.381 158.751 131.782 159.931 131.223 161.104C131.022 161.526 130.906 161.988 130.791 162.451L130.791 162.451L130.791 162.451L130.791 162.451L130.791 162.451L130.791 162.452L130.791 162.452C130.729 162.697 130.668 162.943 130.594 163.183L130.526 163.39C130.112 164.572 130.048 165.775 130.24 166.993C130.394 167.966 130.965 168.457 131.686 168.334C132.271 168.234 132.856 168.14 133.441 168.045L133.442 168.045L133.442 168.045L133.443 168.044L133.443 168.044L133.444 168.044L133.444 168.044L133.445 168.044L133.446 168.044C134.241 167.915 135.036 167.786 135.829 167.646C136.432 167.539 137.035 167.437 137.639 167.334L137.639 167.334L137.64 167.334L137.64 167.334L137.641 167.334L137.641 167.334L137.642 167.334C139.344 167.045 141.046 166.756 142.727 166.375C144.948 165.872 147.153 165.3 149.358 164.728L149.359 164.728C150.215 164.506 151.072 164.284 151.929 164.065C152.003 164.047 152.07 164.001 152.137 163.955C152.168 163.934 152.2 163.913 152.232 163.894C152.209 163.862 152.187 163.825 152.166 163.787C152.119 163.705 152.073 163.623 152.008 163.604C151.684 163.509 151.352 163.44 151.02 163.372L150.937 163.355L150.828 163.332C150.463 163.255 150.099 163.172 149.735 163.088L149.734 163.088L149.734 163.088L149.734 163.088C148.894 162.895 148.055 162.703 147.205 162.595C145.203 162.34 143.19 162.158 141.177 162.02L140.393 161.968C137.781 161.804 135.173 161.759 132.63 162.669L132.351 162.777C132.023 162.896 131.618 162.981 131.467 162.496C131.305 161.973 131.807 161.716 132.238 161.527C132.324 161.489 132.415 161.464 132.507 161.44L132.599 161.416C135.292 160.707 138.012 160.547 140.768 160.905L141.075 160.947C141.644 161.028 142.236 160.989 142.604 160.355C143.06 159.57 143.523 158.789 143.994 157.995C144.544 157.069 145.104 156.124 145.676 155.135C145.824 154.773 145.973 154.411 146.123 154.05C146.48 153.187 146.837 152.323 147.178 151.453ZM183.677 87.4744C182.166 87.1205 180.648 86.7963 179.128 86.4784L177.988 86.2408C177.629 86.166 177.269 86.0896 176.91 86.0132L176.908 86.0128C175.574 85.7291 174.238 85.4452 172.891 85.2423C170.866 84.9373 168.828 84.6849 166.786 84.5406C165.329 84.4377 163.865 84.4238 162.402 84.41C161.885 84.4051 161.368 84.4002 160.852 84.3913C160.767 84.3899 160.681 84.4451 160.595 84.5003L160.595 84.5004C160.555 84.5261 160.515 84.5517 160.475 84.5717C160.516 84.5932 160.557 84.6202 160.599 84.6472C160.687 84.7055 160.776 84.7638 160.867 84.7671C161.196 84.7789 161.525 84.7786 161.854 84.7783C162.381 84.7778 162.907 84.7773 163.43 84.8264C165.835 85.0524 168.238 85.3069 170.637 85.5926C172.189 85.7774 173.739 85.999 175.278 86.2727C176.448 86.4808 177.613 86.7187 178.777 86.963L180.523 87.3313C182.077 87.6584 183.633 87.9861 185.178 88.3562C186.396 88.6482 187.606 88.9831 188.808 89.338C190.742 89.9091 192.676 90.486 194.593 91.1111C195.465 91.3952 196.325 91.7146 197.185 92.034L197.185 92.0341C197.669 92.214 198.154 92.394 198.64 92.5676C198.705 92.5905 198.783 92.5747 198.861 92.5589C198.897 92.5515 198.933 92.5442 198.968 92.5407C198.948 92.5138 198.929 92.4825 198.91 92.4513C198.87 92.3841 198.83 92.317 198.772 92.2923C198.483 92.1699 198.195 92.0445 197.907 91.919L197.907 91.9189L197.907 91.9186C197.076 91.5565 196.244 91.1943 195.389 90.9036C194.746 90.6852 194.086 90.5197 193.426 90.3541C192.92 90.2272 192.414 90.1004 191.916 89.9497C190.829 89.6212 189.752 89.263 188.614 88.8847L188.613 88.8844L188.61 88.8833C188.21 88.7502 187.802 88.6146 187.384 88.4769C187.002 88.3727 186.621 88.265 186.24 88.1572L186.239 88.1571C185.388 87.9165 184.537 87.6758 183.677 87.4744ZM189.733 172.634C189.291 173.515 188.846 174.406 188.393 175.318C188.311 175.482 188.23 175.631 188.152 175.774C188.035 175.989 187.927 176.188 187.837 176.395C187.481 177.221 187.129 178.049 186.777 178.876C186.361 179.857 185.944 180.837 185.519 181.814C184.946 183.133 184.361 184.447 183.749 185.748C182.839 187.685 181.911 189.613 180.97 191.535C180.167 193.174 179.347 194.804 178.515 196.428C177.595 198.225 176.666 200.019 175.716 201.8C174.533 204.018 173.346 206.233 172.121 208.428C171.299 209.898 170.454 211.356 169.609 212.813C169.226 213.474 168.843 214.134 168.462 214.795C168.126 215.38 167.791 215.965 167.456 216.55L167.455 216.551L167.454 216.552L167.454 216.554L167.453 216.555L167.452 216.556L167.451 216.558C166.72 217.835 165.989 219.112 165.244 220.38C165.08 220.66 164.917 220.94 164.755 221.22L164.754 221.221L164.754 221.222L164.753 221.223L164.753 221.223C164.066 222.405 163.379 223.588 162.599 224.706C162.108 225.409 161.542 226.06 160.977 226.711L160.976 226.711L160.976 226.711L160.976 226.712L160.976 226.712L160.976 226.712L160.975 226.712C160.612 227.131 160.248 227.55 159.903 227.983C159.754 228.17 159.695 228.703 159.774 228.746C159.809 228.765 159.844 228.786 159.88 228.807L159.88 228.807C160.123 228.953 160.393 229.115 160.713 228.728C161.036 228.338 161.392 227.972 161.748 227.607L161.748 227.607C162.264 227.077 162.78 226.548 163.191 225.946C164.197 224.471 165.104 222.926 166.009 221.384L166.01 221.383L166.011 221.381L166.013 221.378C166.201 221.057 166.39 220.736 166.579 220.415C167.178 219.402 167.763 218.379 168.347 217.357C168.829 216.514 169.311 215.671 169.801 214.833C170.187 214.172 170.585 213.518 170.982 212.864C171.386 212.2 171.79 211.536 172.182 210.865C173.039 209.397 173.887 207.922 174.702 206.43C175.035 205.821 175.346 205.201 175.657 204.581C175.924 204.048 176.192 203.515 176.473 202.989C176.825 202.33 177.188 201.677 177.55 201.024L177.551 201.023L177.551 201.022L177.552 201.02L177.553 201.02L177.553 201.02L177.553 201.019L177.553 201.019C178.03 200.16 178.508 199.3 178.961 198.428C179.352 197.674 179.718 196.907 180.083 196.14L180.083 196.139C180.386 195.505 180.688 194.871 181.005 194.244C181.39 193.482 181.787 192.726 182.184 191.971L182.185 191.969L182.185 191.969L182.185 191.969L182.185 191.969L182.185 191.968L182.185 191.968C182.74 190.914 183.294 189.86 183.815 188.789C184.612 187.153 185.351 185.488 186.091 183.824L186.091 183.823L186.34 183.263C186.701 182.451 187.05 181.635 187.4 180.818L187.401 180.815C187.762 179.972 188.123 179.128 188.496 178.29C189.299 176.488 190.111 174.69 190.963 172.911C191.415 171.967 191.89 171.035 192.365 170.103L192.365 170.103L192.366 170.102L192.366 170.102L192.366 170.102L192.366 170.101L192.366 170.101L192.367 170.099L192.368 170.098L192.368 170.097L192.369 170.095L192.37 170.094L192.37 170.092C192.71 169.425 193.051 168.758 193.382 168.087C193.771 167.3 194.151 166.509 194.531 165.718L194.532 165.715L194.533 165.714C195.242 164.237 195.952 162.76 196.715 161.312C196.876 161.007 197.029 160.696 197.182 160.385L197.182 160.385L197.182 160.385C197.753 159.225 198.326 158.06 199.323 157.157C199.522 156.977 199.562 156.551 199.549 156.243C199.544 156.126 199.169 155.913 198.993 155.94C198.757 155.976 198.479 156.155 198.344 156.357C197.935 156.968 197.544 157.591 197.152 158.214C196.885 158.64 196.617 159.066 196.344 159.488C194.7 162.029 193.437 164.763 192.233 167.529C191.89 168.315 191.506 169.083 191.123 169.851C191.04 170.017 190.956 170.183 190.874 170.35C190.496 171.109 190.117 171.867 189.733 172.633L189.733 172.634ZM183.947 165.651C183.585 167.378 183.213 169.058 182.809 170.729C182.654 171.367 182.461 171.996 182.268 172.625L182.268 172.625L182.268 172.626L182.187 172.889L182.145 173.029C182.073 173.266 182.001 173.504 181.93 173.741C181.681 174.571 181.432 175.401 181.148 176.219C179.738 180.288 178.31 184.351 176.882 188.414C176.604 189.205 176.315 189.992 176.026 190.779C175.893 191.14 175.76 191.501 175.629 191.863C175.406 192.474 175.191 193.089 174.975 193.704C174.486 195.1 173.996 196.496 173.424 197.857C172.765 199.423 172.021 200.953 171.278 202.484L171.278 202.484C171.017 203.021 170.756 203.558 170.499 204.097C169.853 205.45 169.193 206.797 168.522 208.139C168.124 208.935 167.721 209.728 167.318 210.521C166.711 211.715 166.105 212.908 165.516 214.111C165.237 214.682 164.982 215.264 164.726 215.846C164.424 216.533 164.123 217.22 163.783 217.887C163.135 219.159 162.424 220.399 161.713 221.638L161.488 222.031C160.732 223.35 159.966 224.664 159.164 225.955C158.79 226.556 158.343 227.116 157.882 227.655C157.774 227.781 157.599 227.849 157.424 227.917L157.423 227.917C157.343 227.948 157.263 227.979 157.19 228.016C157.175 227.926 157.148 227.829 157.121 227.733C157.062 227.524 157.003 227.314 157.074 227.169C157.49 226.317 157.978 225.498 158.466 224.683C158.768 224.181 159.079 223.683 159.39 223.186C159.922 222.335 160.455 221.483 160.938 220.605C161.949 218.768 162.891 216.891 163.823 215.012C164.13 214.394 164.411 213.763 164.693 213.132L164.693 213.132L164.693 213.131L164.693 213.131L164.693 213.13L164.694 213.13C164.955 212.544 165.216 211.958 165.498 211.382C165.925 210.508 166.371 209.643 166.817 208.778L166.818 208.777C167.159 208.113 167.501 207.449 167.835 206.782C167.956 206.54 168.078 206.297 168.2 206.055L168.201 206.054L168.201 206.054L168.201 206.054L168.201 206.053L168.201 206.053C168.765 204.932 169.329 203.81 169.833 202.663C171.048 199.891 172.225 197.103 173.381 194.306C173.659 193.633 173.902 192.945 174.144 192.257L174.144 192.257L174.144 192.256L174.145 192.256L174.145 192.256L174.145 192.256C174.329 191.732 174.514 191.208 174.714 190.69C174.878 190.268 175.062 189.854 175.246 189.44L175.246 189.44C175.433 189.02 175.62 188.6 175.785 188.172C176.276 186.9 176.741 185.617 177.184 184.327C177.316 183.942 177.424 183.549 177.532 183.156L177.532 183.156L177.532 183.156L177.532 183.156L177.532 183.156L177.532 183.156C177.631 182.795 177.73 182.435 177.847 182.081C178.001 181.619 178.17 181.163 178.34 180.707L178.341 180.707L178.341 180.706L178.341 180.706L178.341 180.705L178.341 180.705L178.341 180.704C178.497 180.287 178.652 179.87 178.795 179.449C178.896 179.15 178.997 178.853 179.099 178.555L179.099 178.554L179.099 178.553L179.099 178.552L179.1 178.552L179.1 178.551C179.57 177.171 180.04 175.791 180.458 174.395C181.017 172.531 181.576 170.661 181.993 168.762C182.284 167.439 182.526 166.106 182.767 164.772L182.767 164.772L182.768 164.771L182.768 164.771L182.768 164.77L182.768 164.77C182.99 163.541 183.213 162.313 183.474 161.092C183.866 159.263 184.155 157.453 183.858 155.577C183.836 155.436 184.032 155.261 184.227 155.085C184.318 155.004 184.409 154.923 184.478 154.845C184.543 154.931 184.621 155.015 184.7 155.099C184.869 155.281 185.039 155.462 185.077 155.668C185.354 157.183 185.231 158.704 184.955 160.209C184.83 160.892 184.701 161.574 184.571 162.258L184.571 162.26C184.359 163.379 184.146 164.505 183.947 165.651ZM236.488 207.815C236.69 208.835 236.479 209.899 236.106 210.87C235.468 209.473 234.283 208.331 232.857 207.742C231.935 207.361 230.936 207.209 229.946 207.082C228.303 206.872 226.644 206.725 224.992 206.84C219.668 207.211 214.898 210.261 210.923 213.801C209.33 215.218 207.822 216.729 206.314 218.24L206.314 218.24C204.057 220.5 201.802 222.758 199.27 224.701C199.051 224.869 198.664 224.999 198.557 224.745C201.531 222.12 203.927 218.924 206.297 215.749L206.319 215.72C208.681 212.555 211.062 209.365 214.011 206.732C216.97 204.091 220.581 202.017 224.527 201.53C228.473 201.042 232.762 202.343 235.259 205.419C235.831 206.124 236.311 206.927 236.488 207.815ZM145.402 213.833C145.114 218.626 147.108 223.461 150.533 226.849C145.007 222.919 142.873 214.923 145.713 208.789C144.726 208.619 143.724 209.193 143.136 209.999C142.548 210.805 142.302 211.805 142.138 212.786C141.13 218.807 142.805 225.222 146.632 229.995C143.892 227.624 142.217 224.203 141.48 220.668C140.742 217.133 140.881 213.471 141.312 209.886C139.243 210.63 137.678 212.45 136.915 214.501C136.153 216.552 136.122 218.813 136.455 220.975C137.011 224.59 138.575 228.048 140.926 230.862C138.366 228.934 136.667 226.008 135.902 222.908C135.136 219.809 135.254 216.542 135.862 213.408C134.69 213.113 133.548 213.912 132.626 214.688C130.329 216.619 128.162 218.7 125.997 220.78L125.997 220.78C123.169 223.497 120.342 226.212 117.227 228.591C117.684 228.512 118.146 228.505 118.599 228.62C119.058 228.737 119.444 228.967 119.822 229.194L119.879 229.228C126.365 233.101 134.775 235.137 143.075 234.845C145.285 234.767 147.526 234.521 149.511 233.794C150.016 233.609 150.845 233.502 150.942 233.915C150.957 233.977 150.873 234.05 150.705 234.129C155.591 233.129 160.294 231.63 164.629 229.675C165.698 229.192 166.941 228.662 168.124 228.963C168.582 229.079 168.968 229.31 169.347 229.537L169.404 229.571C175.144 232.998 182.392 234.987 189.736 235.197C189.756 235.192 189.777 235.189 189.8 235.188C192.773 235.064 195.732 234.757 198.639 234.274C198.772 234.23 198.905 234.184 199.036 234.136C199.374 234.013 199.858 233.924 200.169 234.003C205.45 233.009 210.535 231.434 215.195 229.332C216.264 228.85 217.507 228.32 218.69 228.62C219.148 228.737 219.534 228.967 219.913 229.194L219.913 229.194L219.97 229.228C226.455 233.101 234.866 235.137 243.166 234.845C245.375 234.767 247.616 234.521 249.602 233.794C250.106 233.609 250.935 233.502 251.032 233.915C251.182 234.551 241.105 236.261 235.162 235.47C231.347 234.963 228.636 234.39 225.961 233.824C224.468 233.509 222.987 233.196 221.332 232.898C220.229 232.699 219.112 232.516 217.978 232.502C216.483 232.484 215.012 232.76 213.563 233.035L205.396 234.58C202.161 235.193 198.859 235.808 195.547 236.007C191.956 236.476 188.204 236.296 184.596 235.813C181.637 235.417 178.737 234.826 175.837 234.234L175.836 234.234L175.836 234.234L175.836 234.234C174.15 233.89 172.464 233.546 170.766 233.241C169.663 233.042 168.546 232.859 167.412 232.845C165.917 232.827 164.446 233.103 162.997 233.378L154.83 234.923C149.905 235.855 144.827 236.794 139.796 236.261C139.517 236.231 139.212 236.186 139.036 236.021C138.935 235.926 138.922 235.781 138.984 235.674C137.592 235.686 136.25 235.627 135.071 235.47C131.257 234.963 128.545 234.39 125.871 233.824L125.87 233.824L125.87 233.824C124.377 233.509 122.896 233.196 121.241 232.898C120.139 232.699 119.022 232.516 117.888 232.502C116.392 232.484 114.922 232.76 113.473 233.035L106.392 234.375C104.641 234.906 102.848 235.249 101.034 235.349C99.1847 235.651 97.3222 235.895 95.4568 236.007C91.8655 236.476 88.1138 236.296 84.5051 235.813C81.5469 235.417 78.647 234.826 75.7464 234.234L75.7461 234.234L75.7458 234.234L75.7455 234.234C74.0596 233.89 72.3734 233.546 70.6753 233.241C69.5728 233.042 68.4557 232.859 67.3216 232.845C65.8263 232.827 64.356 233.103 62.9065 233.378L54.74 234.923C49.8149 235.855 44.7362 236.794 39.7056 236.261C39.4263 236.231 39.1212 236.186 38.9456 236.021C38.77 235.857 38.8615 235.543 39.1431 235.531C48.0786 235.158 56.8814 233.128 64.5386 229.675C65.6078 229.192 66.8502 228.662 68.0332 228.963C68.4917 229.079 68.8777 229.31 69.2564 229.537L69.3134 229.571C75.0533 232.998 82.3013 234.987 89.6458 235.197C89.6536 235.195 89.6616 235.193 89.6697 235.192C89.6824 235.19 89.6956 235.189 89.7091 235.188C92.6827 235.064 95.6416 234.757 98.5485 234.274C98.6819 234.23 98.8142 234.184 98.9454 234.136C99.2834 234.013 99.7674 233.924 100.079 234.003C102.486 233.55 104.852 232.976 107.156 232.287C107.441 232.155 107.723 232.018 108.003 231.875C112.556 229.556 116.25 225.857 119.465 221.902C120.916 220.118 122.285 218.271 123.654 216.423L123.655 216.423L123.655 216.423L123.655 216.422C125.321 214.175 126.986 211.928 128.797 209.796C132.097 205.911 135.967 202.359 140.661 200.336C145.355 198.313 150.982 197.993 155.495 200.387C156.724 201.038 157.861 201.887 158.726 202.971C161.158 206.016 161.042 210.494 159.412 214.027C159.032 213.549 158.715 213.026 158.397 212.503L158.397 212.502L158.397 212.502C158.116 212.039 157.835 211.575 157.509 211.142C156.816 210.22 155.832 209.407 154.676 209.342C153.043 209.25 151.708 210.655 150.992 212.115C149.001 216.169 150.169 221.51 153.674 224.378C150.919 223.599 149.755 220.378 149.366 217.558C148.925 214.356 149.038 210.822 151.034 208.271C149.613 207.623 147.843 208.284 146.846 209.481C145.85 210.678 145.495 212.282 145.402 213.833ZM159.199 211.51C159.629 210.392 159.872 209.169 159.638 207.995C159.435 206.973 158.883 206.049 158.224 205.238C155.35 201.699 150.414 200.203 145.872 200.763C141.33 201.324 137.175 203.71 133.769 206.748C130.374 209.778 127.634 213.448 124.915 217.09L124.89 217.124C122.163 220.776 119.405 224.454 115.983 227.473C116.106 227.766 116.55 227.617 116.803 227.423C119.717 225.187 122.313 222.589 124.91 219.989C126.645 218.251 128.381 216.513 130.214 214.882C134.79 210.809 140.28 207.3 146.407 206.873C148.309 206.741 150.218 206.91 152.109 207.152C153.249 207.297 154.399 207.473 155.46 207.911C157.1 208.589 158.465 209.902 159.199 211.51Z" fill="#00160A"/>
<path fill-rule="evenodd" clip-rule="evenodd" d="M162.502 183.931C161.846 185.528 160.826 186.77 159.567 187.789C157.679 189.317 155.535 189.9 153.165 189.117C151.695 188.631 150.247 188.123 149.067 186.989C147.619 185.599 147.112 183.93 147.196 182.017C147.229 181.278 147.222 180.47 147.516 179.821C148.221 178.267 148.974 176.72 150.484 175.705C152.287 174.493 154.199 173.675 156.411 173.735C159.319 173.814 161.473 175.17 162.854 177.697C163.589 179.043 163.367 180.503 163.056 181.928C162.914 182.578 162.707 183.214 162.502 183.931ZM148.51 181.619C148.593 182.592 148.45 183.657 148.801 184.52C149.794 186.959 151.988 187.92 154.387 188.236C156.963 188.576 158.84 187.179 160.345 185.223C161.271 184.018 161.722 182.604 161.982 181.144C162.233 179.732 162.123 178.353 161.145 177.165C160.356 176.207 159.395 175.529 158.175 175.286C157.299 175.111 156.365 174.78 155.531 174.931C152.206 175.531 149.187 177.202 148.51 181.619Z" fill="#FFB61D"/>
<path fill-rule="evenodd" clip-rule="evenodd" d="M191.621 198.406C191.761 195.409 192.998 193.033 195.261 191.228C196.665 190.108 198.296 190.612 199.217 192.291C200.379 194.409 200.501 196.611 199.544 198.781C198.802 200.463 197.651 201.851 195.895 202.676C194.588 203.29 192.93 202.683 192.388 201.436C191.987 200.51 191.849 199.47 191.621 198.406ZM192.988 196.965C192.964 197.186 192.931 197.406 192.917 197.627C192.844 198.813 192.88 199.973 193.521 201.042C193.919 201.706 194.898 202.016 195.514 201.593C197.062 200.53 198.281 199.186 198.739 197.325C199.091 195.898 199.093 194.451 198.352 193.106C197.806 192.114 196.791 191.724 196.029 192.222C195.684 192.447 195.394 192.76 195.091 193.045C193.994 194.076 193.496 195.435 192.988 196.965Z" fill="#FFB61D"/>
<path fill-rule="evenodd" clip-rule="evenodd" d="M153.637 177.375C154.543 176.607 156.45 176.575 157.462 177.215C160.752 179.298 159.436 183.552 157.134 185.085C154.886 186.583 151.901 185.056 151.181 183.108C150.815 182.117 150.961 181.196 151.351 180.215C151.824 179.025 152.505 178.072 153.637 177.375ZM153.354 182.203C153.233 181.92 153.004 181.634 153.013 181.355C153.028 180.909 153.212 180.47 153.299 180.024C153.346 179.785 153.339 179.536 153.356 179.291C153.184 179.5 152.938 179.682 152.853 179.921C152.649 180.497 152.503 181.095 152.364 181.692C152.049 183.047 153.469 184.698 154.888 184.566C156.555 184.41 157.526 183.406 158.044 181.851C158.571 180.267 158.094 178.897 156.653 178.094C156.157 177.817 155.254 177.967 155.081 178.435C154.759 179.304 154.549 180.213 154.255 181.093C154.096 181.571 154.398 182.407 153.354 182.203Z" fill="#FFB61D"/>
<path fill-rule="evenodd" clip-rule="evenodd" d="M195.771 199.622C194.033 199.312 193.296 198.021 193.867 196.402C194.179 195.515 194.443 194.612 195.244 193.994C195.925 193.467 196.615 193.439 197.391 193.754C198.06 194.026 198.277 194.583 198.329 195.193C198.489 197.074 197.636 199.086 196.113 199.583C196.024 199.612 195.92 199.594 195.771 199.622ZM196.682 197.467C196.836 197.046 197.022 196.634 197.13 196.201C197.195 195.936 197.139 195.64 197.138 195.357C197.006 195.542 196.877 195.728 196.742 195.911C196.641 196.048 196.559 196.24 196.421 196.301C196.237 196.383 195.963 196.444 195.81 196.361C195.679 196.291 195.609 196.004 195.616 195.816C195.621 195.665 195.802 195.529 195.866 195.371C195.923 195.234 195.925 195.075 195.951 194.925C195.813 195.003 195.589 195.052 195.55 195.165C195.359 195.712 195.219 196.278 195.057 196.836C194.887 197.425 194.824 198.115 195.404 198.389C195.962 198.652 196.306 198.028 196.682 197.467Z" fill="#FFB61D"/>
<path fill-rule="evenodd" clip-rule="evenodd" d="M272.739 109.002C271.75 108.974 271.65 108.867 271.643 107.734C271.621 107.633 271.59 107.546 271.562 107.467L271.562 107.467C271.522 107.356 271.488 107.261 271.494 107.168C271.53 106.528 271.053 106.531 270.718 106.66C270.514 106.739 270.347 107.161 270.337 107.436C270.329 107.657 270.377 107.88 270.425 108.104V108.104V108.104C270.466 108.298 270.507 108.492 270.513 108.686C270.518 108.84 270.313 109.078 270.151 109.14C269.986 109.203 269.787 109.186 269.594 109.168C269.544 109.164 269.496 109.16 269.448 109.157C269.01 109.129 268.504 109.165 268.528 109.679C268.537 109.889 269.146 110.256 269.459 110.233C270.373 110.168 270.896 110.436 271.123 111.371C271.167 111.551 271.395 111.686 271.624 111.821C271.729 111.882 271.833 111.944 271.92 112.01C271.958 111.917 272.01 111.82 272.063 111.723C272.178 111.511 272.293 111.299 272.248 111.13C272.028 110.319 272.387 110.138 273.086 110.091C273.268 110.078 273.444 109.964 273.62 109.85C273.7 109.798 273.78 109.746 273.86 109.704C273.796 109.641 273.734 109.576 273.671 109.511C273.516 109.351 273.361 109.19 273.185 109.057C273.106 108.997 272.974 108.999 272.849 109.002C272.811 109.003 272.774 109.003 272.739 109.002ZM70.8775 108.977C70.8742 108.956 70.8697 108.928 70.842 108.882C69.9946 108.519 69.6415 108.697 69.6221 109.48C69.6109 109.933 69.4526 110.145 68.996 110.298C68.6777 110.405 68.2413 110.793 68.2373 111.06C68.231 111.493 68.7066 111.597 69.1303 111.535C69.672 111.456 69.7854 111.735 69.7847 112.217C69.7841 112.722 69.8072 113.25 69.9622 113.721C70.0131 113.876 70.2201 113.979 70.427 114.083L70.427 114.083C70.5208 114.13 70.6145 114.176 70.6938 114.228C70.7284 114.162 70.7657 114.097 70.803 114.031C70.8903 113.879 70.9776 113.726 71.0296 113.563C71.0665 113.447 71.0573 113.317 71.0481 113.186C71.0441 113.128 71.04 113.07 71.04 113.013C71.04 111.547 71.0434 111.546 72.3174 111.097L72.3466 111.087C72.4978 111.033 72.628 110.921 72.7582 110.808C72.8184 110.756 72.8785 110.704 72.9408 110.658C72.8753 110.601 72.8125 110.536 72.7496 110.472L72.7496 110.472C72.6104 110.329 72.4713 110.186 72.3027 110.127C71.8433 109.964 71.0376 109.392 70.8828 109C70.88 108.993 70.8789 108.986 70.8775 108.977ZM246.707 137.548C247.114 137.548 247.289 138.952 247.365 139.556C247.378 139.663 247.388 139.745 247.396 139.79C247.418 139.913 247.804 139.918 248.192 139.922C248.578 139.927 248.965 139.931 248.989 140.053C249.013 140.172 248.628 140.379 248.266 140.575C247.96 140.739 247.67 140.895 247.655 140.982C247.642 141.053 247.632 141.156 247.62 141.275C247.567 141.813 247.478 142.703 246.992 142.703C246.909 142.703 246.819 142.479 246.703 142.192C246.499 141.685 246.217 140.982 245.758 140.982C245.626 140.982 243.668 140.912 243.641 140.754C243.614 140.597 245.474 140.01 245.758 139.927C246.009 139.854 246.171 139.172 246.318 138.557C246.444 138.028 246.559 137.548 246.707 137.548ZM48.566 144.392C48.6563 144.804 48.7493 145.229 49.4977 145.116C49.6561 144.912 49.8055 144.707 49.8018 144.505C49.7982 144.302 49.7597 144.097 49.7213 143.892C49.6264 143.386 49.5315 142.88 49.9622 142.405C49.9928 142.372 49.8924 142.17 49.8104 142.091C49.3003 141.596 49.1307 141.009 49.142 140.299C49.1449 140.113 48.6899 139.857 48.4031 139.766C48.3078 139.735 47.9966 140.097 47.9347 140.321C47.8548 140.61 47.8305 140.985 47.9516 141.244C48.1811 141.736 47.8982 141.819 47.6119 141.904C47.5699 141.917 47.5278 141.929 47.4873 141.943C47.3916 141.975 47.2876 141.99 47.1844 142.006C47.0374 142.027 46.892 142.049 46.7741 142.119C46.4921 142.288 46.0162 142.655 46.0568 142.748C46.2139 143.108 46.5123 143.326 47.0179 143.116C47.3502 142.979 47.8115 142.993 48.1549 143.113C48.2354 143.141 48.2574 143.297 48.2822 143.472C48.3049 143.632 48.3299 143.809 48.4039 143.919C48.4902 144.047 48.5279 144.218 48.566 144.392Z" fill="#00160A"/>
<path d="M190.02 181.275L273.657 181.28Z" fill="#4A0DBF"/>
<path fill-rule="evenodd" clip-rule="evenodd" d="M182.76 82.1241C182.76 82.1241 182.892 76.646 184.047 75.6525C184.686 75.1032 184.801 78.1156 187.096 78.7384C188.675 79.1667 190.488 78.2751 192.21 78.6929C192.949 78.872 194.706 80.2722 194.281 80.6706C193.83 81.0937 193.123 80.0122 190.457 80.336C189.409 80.4633 187.719 81.9651 186.199 82.0595C184.056 82.1924 182.76 82.1241 182.76 82.1241Z" fill="#FFB61D"/>
</svg>
